<?xml version="1.0" encoding="UTF-8" standalone="no"?>
<!-- Created with Inkscape (http://www.inkscape.org/) -->

<svg
   version="1.1"
   id="svgmap"
   width="5100"
   height="3300"
   viewBox="0 0 5100 3300"
   xmlns:xlink="http://www.w3.org/1999/xlink"
   xmlns="http://www.w3.org/2000/svg"
   xmlns:svg="http://www.w3.org/2000/svg">
  <defs
     id="defs1" />
   id="g3"
   style="display:none">

   <path
      id="Gibraltar"
      d="m 910.00232,2639.0514 a 110.59106,108.72454 0 0 1 -74.41101,135.194 110.59106,108.72454 0 0 1 -137.5557,-73.081 110.59106,108.72454 0 0 1 74.26019,-135.2741 110.59106,108.72454 0 0 1 137.63712,72.9327" />
   <path
      d="m 1046.9519,1028.4743 c 9.2799,-1.652 30.6289,-4.4644 13.3039,-14.9299 -5.0297,-9.9082 -14.3367,-13.469 -22.5101,-6.3124 -16.5045,1.1409 -33.3667,-4.9901 -49.5244,3.4213 -10.77707,5.6104 -14.6337,21.9911 -28.61268,20.5813 -15.57558,-1.5708 -13.00286,15.9139 0.17002,16.0898 5.30168,12.3331 -17.85747,22.8084 -27.77428,20.3483 -8.09487,-2.0081 -9.23833,-2.4535 -19.68542,-8.2809 -12.9267,-7.2105 -27.28938,-13.0643 -40.44422,-9.2967 -9.49393,2.7191 -11.8563,15.5932 -3.27196,21.808 -8.74107,10.468 -3.349,29.5617 -20.7065,31.433 -18.49979,2.5614 -12.65253,21.2624 1.94352,23.6236 3.22413,12.2575 32.21992,15.5081 16.81798,28.4827 -9.0296,7.6065 -15.21087,16.1976 -25.38892,22.3623 -8.47384,5.1325 -27.36013,2.6993 -20.72417,15.1788 -9.7312,12.9819 -24.66357,4.3793 -38.75054,10.6615 -12.91201,5.7582 -0.79384,12.8997 2.84237,19.1737 -10.15903,5.3305 -14.11792,11.8576 -6.50535,23.4043 3.59254,5.4492 -10.1242,16.5809 0.35942,14.32 14.15539,-3.0528 10.60637,5.5163 13.56864,14.7406 10.8761,-1.4075 17.98586,0.738 29.09924,4.0501 10.82541,3.2262 22.13016,1.0301 33.36063,0.1999 12.71535,-0.9399 23.33707,-8.3305 35.51335,-9.1697 14.20617,-0.9791 27.17203,-4.6292 40.3123,-9.6389 13.46907,-5.1351 25.94039,0.605 38.5741,1.6366 12.03468,0.9827 32.36207,9.3125 36.21797,-7.8462 10.9499,-10.8005 17.4011,-26.3859 30.7577,-35.7677 12.7092,-8.927 7.2677,-24.1276 13.9809,-35.4422 9.7834,-16.4892 3.0454,-25.2409 6.6966,-39.5634 1.825,-7.1588 -4.6131,-19.8115 8.1366,-14.9521 14.483,2.2185 -2.9346,-16.6504 -10.2002,-6.817 -7.3877,3.7821 -9.4503,-6.7528 -3.267,-11.6694 -17.7183,7.4056 -5.6405,-33.4649 -20.1306,-20.1868 -1.9423,18.2383 -27.4021,14.7526 -34.92943,3.2096 -7.31433,-6.74 -1.74886,-17.7158 -14.32532,-20.8275 -5.46235,-9.4514 5.10033,-10.731 8.45063,-16.9744 6.96101,-0.5445 14.56442,1.6196 5.69918,-6.2156 -0.53392,-13.909 15.53734,-5.792 23.15244,-4.9069 8.1411,-6.4864 16.1425,-13.8535 27.7936,-15.9277 z"
      id="Ireland" />
   <path
      id="Malta"
      d="m 2023.2696,2707.5246 a 111.85524,112.02023 0 0 1 -51.0304,128.8039 111.85524,112.02023 0 0 1 -137.0022,-19.4224 111.85524,112.02023 0 0 1 -13.328,-137.9278 111.85524,112.02023 0 0 1 130.7412,-45.3709" />
   <path
      d="m 170.09256,3146.4648 c -2.03966,18.6019 21.63667,25.8158 13.02554,45.4721 15.98542,13.7304 35.78668,39.5384 59.30102,27.4378 16.59395,-2.2931 26.01921,-26.2831 2.92413,-24.1176 -16.17928,-13.8263 -26.07677,-41.5538 -14.75717,-59.3931 8.09285,-13.9859 16.5208,-39.6372 -6.15382,-42.9965 1.01485,-11.4468 19.94746,-17.061 9.26327,-32.8281 4.27933,-8.276 16.02484,-25.4396 -3.53543,-20.1402 -9.03495,-17.6917 24.80394,-5.8777 15.42288,-26.4481 -1.35007,-17.5949 44.51872,-20.3045 29.70446,-46.9643 -12.15875,-19.4088 20.90816,-12.8227 20.84574,-35.2628 7.692,-20.6966 20.6159,-41.3347 20.19743,-63.8138 -9.13247,-30.3506 22.95238,-40.9801 37.90891,-57.1008 8.2727,-26.8658 12.91942,-55.0304 8.44449,-82.8274 1.80505,-24.1257 23.50719,-46.6663 13.31975,-71.3293 -20.58467,-13.4351 -45.32051,-17.6219 -69.45371,-20.1104 -17.47986,-6.2996 -49.41297,2.0712 -47.20427,-22.1272 -11.7612,-8.672 -18.31623,-31.4032 -41.46174,-24.546 -19.50586,4.5768 -49.5307,-29.0527 -48.44668,-27.9876 0.2184,195.0277 0.4368,390.0555 0.6552,585.0833 z"
      id="Latin America" />
   <path
      d="m 1452.9657,1488.3129 c 29.5069,-6.1691 33.8128,-20.6001 57.862,-27.8811 -18.0226,-18.3963 39.4718,-20.1993 48.6461,-23.2148 -35.2771,-16.6842 -17.616,-24.6147 -17.2653,-24.6147 24.0549,-7.0023 33.5998,-61.5435 39.5468,-82.8266 4.5609,3.7123 13.5958,2.0764 16.9153,1.0499 4.9812,3.9351 3.5601,10.8429 3.3831,16.4487 10.2859,-3.8859 15.6621,2.8024 -1.5166,13.1822 l 0.35,21.465 19.7151,6.5328 c 7.78,-13.5835 28.9574,-17.661 19.8317,-25.3146 -3.6164,-3.0331 -14.2322,-4.433 -12.8323,-10.7325 1.3999,-6.2995 -0.35,-11.0824 -6.5328,-12.0157 -6.1829,-0.9333 -7.6994,-28.6977 6.4161,-36.0471 14.1156,-7.3494 20.8817,-11.6657 39.3135,-12.8323 23.7157,-2.6731 30.6476,-14.2855 45.1464,12.0157 -4.8054,8.9723 7.4558,6.5799 1.2832,24.1481 -6.0662,17.2653 9.0993,18.4318 1.9832,26.9478 -7.1161,8.516 1.6332,19.5984 -10.4992,18.7818 -12.1323,-0.8166 -18.5024,1.3319 -21.2316,12.249 -2.5664,10.2659 2.7998,13.7656 9.6825,14.4655 6.8828,0.6999 11.0825,6.6495 8.6327,11.899 -2.4498,5.2496 -3.9664,12.1324 -11.3158,12.4824 -7.3494,0.3499 -7.5827,5.1329 -8.2826,14.4655 -0.7,9.3325 -11.8991,11.4324 -17.382,18.8984 -5.4828,7.4661 -5.5995,17.7319 3.3831,22.5149 17.2863,9.2043 -15.5383,22.3871 6.9994,32.0807 -5.4704,21.6997 1.8977,13.7279 5.5996,27.0644 5.3119,19.1365 -14.3744,9.6525 1.5165,46.0797 -7.5799,9.8592 -14.676,22.38 -6.8828,34.0639 l 0.2334,30.3309 c 9.9187,12.6648 2.4632,24.1485 -2.6832,38.4969 -37.4581,4.1168 -31.6997,-21.9239 -40.0134,-25.7813 -18.175,-8.4328 -23.9964,1.3091 -31.6141,-18.5485 -20.3374,13.6826 -13.253,-11.1012 -42.2299,-33.1306 -1.4756,-51.1707 -17.6306,-4.2368 -30.3309,-11.4907 -9.6425,-5.5075 1.6332,-19.4235 -6.0662,-26.7729 -10.8885,-10.3936 -19.4817,-5.5996 -20.2983,-12.0157 -0.8166,-6.4162 -2.3214,-15.3187 -12.004,-19.5184 -12.3774,-5.3684 10.2253,-30.3228 -21.1466,-26.058 z"
      id="Low Countries" />
   <path
      d="m 2015.1369,1569.7396 c 14.8155,-15.5938 38.7859,-11.9528 55.8101,-26.2433 15.4494,-16.1191 40.6777,-14.0941 54.5415,-31.2177 13.7965,-13.0471 27.0078,16.2504 39.9803,-4.2541 13.9312,-8.5499 26.5751,10.082 41.0962,12.8588 11.7364,15.7964 38.4855,1.2752 34.4421,26.3542 14.2666,20.8141 37.4232,-16.2877 57.8448,-0.6341 13.5863,2.0027 21.939,6.4026 19.6858,21.1141 7.6304,11.0028 21.5479,1.7177 29.3075,14.6667 21.8972,4.5315 27.0117,22.7913 44.4456,33.9845 14.0791,23.1972 37.0328,-30.1105 41.7927,-0.2269 -8.2736,26.719 38.8696,29.3224 33.5905,2.3678 14.9657,-8.5397 35.2246,18.564 46.0535,-4.8766 14.1027,-3.4463 32.1966,-3.058 46.5814,-2.6439 -5.8648,12.8114 -21.0523,24.4563 -5.1983,37.9455 0.4584,24.1797 -28.6289,33.6742 -48.7737,37.0752 -21.3793,4.7488 -26.244,31.5401 -46.2256,37.6152 -18.1874,-20.3725 -28.9237,11.4682 -47.107,14.8055 -10.936,2.8952 -25.7056,-0.8817 -18.2436,16.6865 1.9083,17.1402 -32.0582,12.5712 -46.1797,11.8735 -21.6801,-3.6338 -38.7712,-19.248 -54.9024,-32.1079 -15.7005,-15.8522 12.4072,-49.186 -21.1025,-48.3764 -15.7956,2.772 -32.3558,21.2419 -45.1623,-0.076 -16.101,-13.7297 -45.963,-13.3652 -57.9319,6.2354 -8.6891,19.4023 -24.9994,2.4324 -38.2934,15.1061 -19.8227,-1.9224 -29.5956,-23.9517 -46.3544,-32.9854 -17.1593,-10.5461 -22.5825,-33.8852 -43.2703,-39.2091 -13.7488,-16.9417 -15.5806,-38.7901 -19.6954,-59.6231 -1.4701,-2.7442 -3.8895,-4.9512 -6.7315,-6.2148 z"
      id="Czechoslovakia" />
   <path
      d="m 2596.5565,961.95548 c -20.8123,22.1334 -46.9081,22.467 -53.6623,10.26584 -7.3052,-13.19674 -34.5524,-10.53343 -33.4807,-25.89791 -43.668,22.23174 -28.2362,10.06417 -37.4469,16.0987 -3.383,2.21648 -11.5491,14.81547 -12.0157,18.89847 -0.5554,18.40869 1.8545,26.07682 -14.6988,37.09702 0,0 -3.6164,31.2641 -1.1666,38.1469 2.4498,6.8828 6.0662,9.4492 6.1829,19.9484 0.1598,14.3917 -4.8798,8.3094 -10.4992,14.9321 l 17.6152,37.7969 c 0,0 36.8637,23.9148 50.9793,19.0152 14.1155,-4.8996 39.4301,-11.4324 45.8462,-5.4829 6.4162,5.9495 12.2066,25.6928 12.3233,38.4085 -0.6968,26.54 5.8184,25.7213 25.8237,36.6021 11.6343,-5.0837 21.4882,-13.0818 32.1974,-19.7151 1.0217,-18.8941 -6.7568,-65.3617 23.4481,-65.2114 17.3291,1.6474 17.6502,-7.8647 19.78,-19.5046 4.2928,-23.4616 17.7383,-24.0129 21.2209,-44.0086 1.1937,-6.854 27.4768,-6.8311 34.243,-10.5641 10.3246,-6.4681 20.8608,-11.5164 33.2473,-11.1991 -2.5403,-3.4278 25.015,-48.48179 24.6146,-86.90965 -0.1166,-11.19909 3.9664,-20.53167 -7.5827,-23.21479 -11.549,-2.68311 -9.0992,-16.33201 -7.6993,-18.78181 1.3998,-2.4498 8.3993,-14.58215 -2.6832,-16.79864 -11.0824,-2.21649 -17.6761,0.008 -22.3982,-21.34827 -7.8825,-35.64912 -13.9703,8.76257 -31.4974,-57.51202 -16.6537,6.94899 -66.6341,-6.83301 -85.0431,5.13292 -6.9995,4.54963 -53.0891,16.28547 -63.4615,21.69825 -24.6223,12.84898 -32.3141,26.7145 -20.4151,44.79637 11.8991,18.08187 33.7345,24.68522 38.2636,16.0987 5.5996,-10.61581 14.7726,-10.01246 12.1323,-3.14975 -8.6318,22.43579 -5.2334,25.08091 5.8329,54.36227 z"
      id="Baltic States" />
   <path
      d="m 2585.5907,1635.0676 c -33.7415,-19.7112 -40.6682,-3.0553 -22.8161,15.7677 -1.5655,24.2592 -28.903,33.5927 -48.1416,38.9474 -24.2503,2.1737 -29.6578,25.259 -47.7144,35.7696 -15.3706,17.7517 -17.2656,-24.5441 -31.9129,6.6571 -25.7617,22.8277 -43.9971,-3.4696 -32.5669,35.1476 -28.3996,4.8314 -78.7227,17.0617 -101.8649,-21.5991 -18.85,28.2255 -16.4598,50.37 -43.7083,40.1944 -6.6411,8.9535 4.2584,7.7179 5.4963,16.1191 1.2379,8.4012 -8.659,4.7192 -6.6853,25.1185 3.709,38.3353 -34.6832,5.973 -6.4933,56.7292 23.9001,10.2858 30.885,21.9848 50.754,44.2643 47.2192,22.5085 54.8624,21.8346 85.0142,-5.2136 56.1861,-36.0834 75.0443,-26.5328 94.9359,0.3219 30.9096,-1.6085 40.048,-21.7189 46.4283,-37.6681 7.0316,-17.577 20.7704,-15.6525 15.6173,-33.343 -3.9724,-13.6369 24.1051,-29.2324 49.9572,-53.1929 19.1127,-13.2915 49.4068,-7.3886 64.0447,6.064 22.0743,31.9429 43.8707,13.962 66.3683,20.35 26.1608,21.0983 64.9373,22.9144 61.3534,-19.8521 12.4815,-29.4754 -7.7399,-69.8827 -32.855,-84.9975 -20.9897,-12.632 -15.8525,-27.905 -45.0513,-44.8744 -24.1181,-14.0166 -41.638,-35.6525 -70.0222,-24.9223 -17.2492,2.6485 -34.1451,6.6812 -50.1374,-15.7878 z"
      id="Hungary" />
   <path
      d="m 2418.7709,2176.9405 c -8.0882,23.2925 -16.1765,46.5851 -24.2647,69.8776 9.6042,-0.7048 18.1245,8.3754 11.3146,17.3803 -6.3231,8.3612 -6.5472,18.6597 -4.4775,29.155 2.4529,12.4385 -4.0888,24.875 -5.3832,37.5177 -1.2526,12.2347 -3.8804,25.0407 1.4409,34.9697 11.4749,7.3443 29.6521,16.2284 41.8433,22.6867 15.0819,7.9898 17.2259,12.1371 21.6583,26.9294 12.9123,1.8341 4.2753,5.9079 19.23,20.3459 5.1718,-4.2774 10.3436,-8.5549 15.5154,-12.8323 0.1944,-6.2995 0.3889,-12.5989 0.5833,-18.8984 15.5146,-7.1219 28.5406,-20.9111 31.0651,-38.6679 1.5837,-11.1395 3.9635,-18.6262 -6.5389,-31.6182 -12.4215,-15.366 -28.6769,-29.6877 -31.0241,-50.3275 -1.1489,-10.1023 -6.9839,-18.9743 -10.9859,-28.1274 -4.6199,-10.5662 1.801,-24.0277 13.244,-19.44 11.8713,4.7594 10.0731,-15.5024 5.2346,-20.9847 -10.9275,-12.3817 -28.3233,-10.8297 -42.4075,-17.2266 -12.3241,-4.7104 -10.682,-7.83 -36.0477,-20.7393 z"
      id="Albania" />
   <path
      d="m 2601.7067,2029.5622 c 9.5739,-5.3272 24.5308,3.0368 9.1408,10.0286 -4.1271,15.806 20.7627,19.1134 30.5776,12.2364 17.4378,-4.4922 35.0849,5.5706 52.6823,5.9327 11.6389,0.2395 20.1872,-3.6324 26.0536,-14.9995 15.4055,7.4886 35.149,9.5486 51.1252,2.3176 22.1989,0.2676 29.5952,-20.8588 45.2386,-31.4665 9.2328,-14.5607 22.226,-9.9533 32.582,0.1999 12.0421,6.2067 25.7906,5.561 38.9349,6.5626 12.021,8.7558 28.1029,3.7528 40.3218,11.4979 11.5355,7.3836 -6.8253,-2.879 34.0722,15.1786 0.2698,10.3263 -3.101,13.2093 -2.6412,25.9563 0.6822,18.9144 17.8483,29.6715 1.8947,40.3643 -28.8716,8.5063 -67.6881,28.0151 -89.4537,84.8186 -17.9181,-2.3643 -36.8332,9.4698 -51.1041,19.5634 -16.4483,11.6337 -28.4563,-0.073 -50.0346,9.1266 -17.3604,7.4018 -33.5417,-12.5584 -51.0782,-7.3543 -13.0423,3.8704 -20.6067,26.8624 -37.1526,27.3584 -9.905,3.497 -8.6558,0.6512 -27.3942,13.3045 6.3741,-29.6614 -4.3524,-30.6994 -15.3317,-37.0596 -1.6519,-18.7676 -8.0989,-16.5494 -33.4841,-30.568 9.4744,-23.679 12.5938,-20.4876 -5.3181,-36.7555 4.6216,-18.3618 21.5671,-30.5327 30.2557,-45.8074 2.1412,-11.3029 -11.7303,-15.5906 -34.3883,-36.8608 -10.4588,-9.8182 -11.1407,-25.594 -2.5146,-36.1917"
      id="Bulgaria" />
   <path
      d="m 2780.1217,1645.1777 c 26.855,-6.24 62.8931,3.075 66.0741,35.3688 23.8094,11.6763 13.3662,44.7827 44.7304,45.0016 19.0066,15.792 13.6713,16.0352 22.7575,27.831 19.4574,25.26 -12.441,15.2603 -0.1534,46.3608 3.4745,26.163 18.6965,74.2842 52.1808,69.5712 34.2263,-12.9733 65.1976,-13.1309 54.0458,29.316 -46.9577,16.9967 -27.2437,25.4597 -45.3908,62.7573 15.9418,62.6979 26.6419,74.1951 -3.4766,80.1177 -35.2786,-15.671 -68.4243,-25.0874 -80.9836,-26.7416 -26.9338,-3.5475 -49.6009,-13.2436 -60.9402,-20.8949 -29.0811,16.9788 -4.966,40.6797 -81.974,48.609 -9.1955,0.4135 -27.5066,-13.2209 -33.8863,-0.165 -9.5156,19.4734 -47.6083,-4.3288 -62.0423,-1.1503 -61.7313,13.594 -6.7676,-2.5105 -32.24,-22.4853 -12.3586,3.521 -35.2051,-2.4871 -33.9991,-13.9902 35.9991,-27.2559 -21.3794,-42.0022 -24.2244,-11.0935 -35.2261,5.9317 -36.5854,-32.2135 -47.3454,-35.2668 -16.5443,-4.6946 -6.5569,-15.7568 -25.0585,-29.1693 18.5874,-7.7075 22.5573,-11.8566 34.6031,-21.4072 12.3103,-47.9502 27.1902,-22.0417 24.718,-61.753 29.0863,-25.5514 55.2172,-67.8171 100.4274,-40.4767 15.6305,20.2745 14.3982,23.9018 73.9001,24.5754 31.0669,18.6052 57.4622,25.5479 68.2372,-22.6126 10.2926,-46.004 -18.0942,-80.5456 -27.6003,-85.3103 -33.2487,-16.665 -21.9101,-31.6428 -57.8091,-53.3754 1.4881,-26.5002 45.766,-31.0482 75.4496,-23.6167 z"
      id="Rumania" />
   <path
      d="m 4600.9609,2086.7644 c -8.3575,7.0432 -32.4503,21.1519 -20.742,35.1689 8.6801,14.0953 26.1473,21.0012 31.9404,36.9776 1.0826,15.6106 5.0434,33.3549 -5.9725,46.4883 -7.6762,13.7859 -16.7587,32.5362 -3.0372,45.8736 12.905,11.5186 29.3846,22.9766 29.6449,43.0494 0.8363,17.0353 12.3568,30.0318 10.6829,47.1494 -8.1987,15.2908 14.0497,27.8929 22.6424,37.7265 18.3583,0.983 32.8726,-14.1541 50.5651,-17.5893 15.3861,-9.4304 47.7447,-16.9267 48.6221,-38.1529 0.831,-20.1043 9.3293,-31.4485 11.4835,-53.6121 1.5953,-16.4132 5.843,-26.2815 9.3877,-42.0199 5.6226,-24.964 30.535,-38.7512 53.7606,-43.249 16.5464,-0.3787 10.6886,-20.906 9.8079,-46.3126 -0.7546,-21.7678 18.4927,-18.2002 20.6935,-30.5795 -0.9934,-30.7638 -29.9336,-21.999 -32.7279,-85.4673 -0.6535,-14.8434 13.773,-38.2964 -6.8499,-44.9674 -15.3679,-4.84 -23.4332,-6.4662 -35.5593,-32.5693 -15.719,27.957 -38.8758,22.1343 -51.8491,32.5699 -13.6519,10.9815 -33.5286,19.3979 -47.8704,29.3541 -5.2558,4.9171 -30.4161,10.0392 -50.7595,6.4343 -12.1879,-2.1598 -21.0021,-9.1941 -19.5523,16.5053 0.9472,16.7894 -3.2736,26.6799 -9.7303,42.1046 -1.7805,4.2535 -10.9735,12.0776 -14.5806,15.1174 z"
      id="Afghanistan" />
   <path
      d="m 1816.1197,1843.1841 c 11.4965,18.4098 -32.2337,36.3497 1.4583,37.3557 1.0733,10.6272 5.0263,18.2401 16.5398,16.4762 1.9541,15.6941 16.7624,-26.074 25.865,-1.5694 14.9443,29.4233 22.5907,5.0081 35.4349,-0.7456 15.9409,-7.1409 18.8047,8.8841 43.2902,-10.1489 17.875,-13.8947 30.6774,18.4904 47.7841,23.5352 16.1534,4.7637 27.5345,4.6058 42.4557,11.3075 18.9477,8.5102 35.1491,3.4596 48.9369,-5.5092 14.047,-9.1373 29.4596,14.4833 69.8248,2.7012 15.5675,-8.2367 10.7872,-40.1313 36.8689,-35.8988 15.9602,2.9028 45.6694,3.9874 34.6206,-20.9655 2.3269,-11.1589 36.1092,-11.5736 31.2521,-30.6952 -10.2859,-13.7008 16.9614,-26.5404 -2.2307,-36.2086 0.4988,-22.0865 36.1116,0.9365 34.295,-25.8118 3.9287,-11.1707 18.1465,-11.745 1.3103,-38.3899 -11.993,-18.98 17.9783,-37.1644 -14.1274,-37.4787 -9.0343,-2.6018 -18.9305,32.6277 -48.9241,-2.8349 -35.6537,-13.823 -36.375,-1.5028 -51.0303,12.5406 -6.0419,7.4435 -9.8108,13.7814 -19.5852,7.6555 -8.6879,-5.445 -6.0006,4.8034 -18.1889,5.7976 -18.0588,1.473 -21.8515,-22.7476 -31.9832,1.7407 -25.5163,-14.5008 -11.4463,22.7128 -44.9919,22.2553 -19.7505,9.1361 8.5043,31.5127 5.8024,47.3563 8.6441,13.7643 1.7272,39.8011 -14.1824,23.0619 -12.4007,-13.0473 -27.6592,-13.9143 -43.3787,-11.6061 -22.8245,3.3516 -38.5294,20.2221 -60.4385,26.1152 -14.5815,3.9221 -33.2782,-18.8116 -46.0695,-1.0486 -12.9365,17.9647 -32.5445,-10.1579 -48.1124,6.6179 -8.2991,8.9429 -9.89,1.7518 -32.4958,14.3944 z"
      id="Austria" />
   <path
      d="m 3598.8754,2730.479 352.5381,-193.651 30.0976,-262.1288 c 0,0 -18.1985,12.7156 -27.8811,29.8643 -9.6825,17.1486 -21.6982,40.0134 -40.3634,51.3291 -18.6651,11.3158 -16.9153,15.7488 -33.5973,15.5155 -16.682,-0.2334 -26.2693,0.051 -46.0796,11.199 -19.6438,11.0545 -30.8419,21.1222 -47.9461,29.7476 -14.0774,7.099 -30.9142,8.866 -33.8306,19.1318 -2.9164,10.2659 -3.1497,17.1486 -14.5822,17.1486 -11.4324,0 -43.7464,-2.3331 -48.1794,-1.1665 -4.433,1.1665 -10.1492,2.4498 -10.1492,2.4498 22.2586,19.6699 -26.0892,25.051 -34.7638,38.4968 1.5949,0.7235 16.2633,10.2573 20.2983,20.9984 -2.7933,5.3255 -9.2184,6.9214 -14.4654,8.7492 0,0 5.2496,7.1161 2.5664,9.2159 -2.6831,2.0999 -9.8446,7.7174 -7.5827,12.2491 2.2718,4.5517 14.3154,3.5284 17.8485,9.3326 7.5939,12.4755 -1.6331,30.4475 -0.6999,35.9304 0.8904,5.231 14.2322,20.765 14.2322,20.765 0,0 -28.7813,10.8157 -29.5143,20.5316 -2.4611,32.6236 -9.0876,23.5697 -15.7487,26.5979 0.2245,27.8965 -29.5733,22.6005 -32.1974,77.6937 z"
      id="Syria" />

      
  <path
     id="Italy"
     d="m 1947.5176,1887.793 c -2.404,0.1567 -5.1198,1.0517 -8.2774,2.914 -11.6667,6.8811 -14.9353,17.3987 -30.4355,8.7578 -13.1691,-7.3412 -26.0195,26.7511 -36.5723,16.9219 -11.0513,-10.2937 -25.8269,-11.2558 -18.164,-0.1992 9.347,13.4865 -5.2052,14.8662 -15.7696,12.0937 -15.5532,-4.0816 6.363,18.0058 1.166,27.6602 -8.6666,16.1002 -16.952,-22.7625 -26.6113,-2.6328 l -5.8086,1.3691 c -4.6555,-4.2879 -9.0224,-19.0843 -13.6875,-19.4648 -1.555,-0.1268 -3.1425,1.3476 -4.7851,5.3476 -5.5026,13.3997 -14.2327,22.5236 -15.0118,40.7149 -0.4712,10.9992 -10.9981,10.1694 -17.5605,-2.043 -10.3377,-19.2381 -20.0137,-16.8543 -21.8691,-30.3203 -1.2658,-9.1867 3.9033,-13.4612 -8.2754,-6.916 -12.1384,6.5236 0.6081,19.5549 -12.3418,24.8652 -15.164,6.2182 -42.144,12.3811 -53.2617,10.793 -6.7281,-0.9611 -22.9583,-3.0725 -23.5118,2.8242 -1.3019,13.8693 18.4015,19.4407 12.6641,41.2051 -5.7818,21.9331 -26.482,10.3697 -25.4141,18.6504 1.8447,14.3035 24.7665,19.7185 19.5059,35.2285 -4.6118,13.5971 -10.028,27.0832 -2.2559,40.3203 11.0486,18.8175 36.2076,8.1056 17.4883,43.6289 39.4498,-1.5572 37.1577,-17.0841 49.75,-29.8691 12.7107,-12.905 15.3107,-19.2548 33.4805,-17.6348 15.0172,1.3389 37.8216,12.3355 50.6289,19.9746 7.4609,4.4501 21.7187,-5.8574 28.8633,13.5684 5.6241,15.2913 -0.1533,24.8052 16.8613,43.2031 l 2.5497,9.4183 c -6.0065,5.8069 -7.7513,17.7082 6.5636,21.8864 14.8121,5.5142 32.9432,13.5833 31.4277,31.9922 16.5481,-3.8586 32.6184,3.9717 39.8867,20.0996 12.3492,11.4191 25.7141,21.9833 38.461,33.0859 11.0676,13.116 31.045,10.4012 40.6426,24.7735 10.7964,-3.0385 20.6738,-7.5175 31.955,0.3359 22.1302,-2.8936 20.5789,31.7268 41.5977,30.4609 10.9045,-3.9706 16.5546,2.3663 7.4609,10.9746 7.7631,6.3965 32.7598,-10.9397 34.4356,10.3184 -5.5775,22.2476 15.9175,28.9005 33.3027,30.6094 0.3176,12.7257 4.4012,24.7205 15.2949,32.5176 5.461,15.8602 5.3561,4.8168 2.6382,19.6578 l 1.5465,4.8994 c -26.0377,-25.8482 -47.7915,-28.2022 -84.6534,-27.8697 -25.4065,0.2291 -50.253,7.4721 -71.7852,20.9257 -55.7052,34.8061 -78.9451,104.0582 -55.4726,165.3028 l 71.416,75.8535 c 59.8048,27.2079 130.5502,8.4135 168.8672,-44.8613 32.1294,-44.6724 28.0414,-104.8869 16.763,-127.8457 3.3676,-1.3553 8.9477,-10.8217 4.5687,-12.8621 -0.081,-8.1929 -7.6066,-19.3968 6.0765,-22.218 8.271,-15.6075 33.7741,3.2751 32.6386,-17.4063 0.8937,-16.411 -4.0053,-35.5877 -23.0019,-38.4433 -25.4477,-3.5598 -17.2342,-27.8898 -6.8692,-42.5957 10.2643,-12.1131 17.5961,-45.528 36.9063,-38.2188 11.5752,19.1144 40.3508,1.5831 49.3184,20.4336 -3.6094,15.5904 27.1743,36.7667 27.7246,13.6406 14.4699,-15.6677 0.046,-33.6442 -15.6055,-41.8515 -12.6612,-11.5235 -28.9961,-17.9857 -45.582,-24.2071 -25.6485,-19.5289 -59.3386,-21.1072 -86.7676,-36.8437 -19.2624,-11.5672 9.4863,-17.5693 10.8828,-29.1016 -7.0548,-16.1124 -30.3622,-6.3987 -44.3574,-5.9179 -20.2923,6.0752 -38.1782,-9.2248 -54.4336,-19.0371 -24.7212,-13.8509 -41.0087,-38.3665 -50.4746,-64.502 l -2.9824,-11.9023 c -2.3912,-17.3253 -21.8644,-22.6222 -34.1133,-31.6192 -18.2222,-11.6669 -41.9813,-18.4932 -52.7207,-38.7988 -4.2515,-12.3709 -9.8949,-29.0594 5.2715,-35.3106 14.9202,-15.2703 -10.6897,-25.5669 -12.1661,-39.5664 2.628,-15.0695 8.0367,-9.8443 12.6524,-8.5254 4.3598,1.2458 9.3765,-3.5958 21.9551,-11.3085 6.7955,-4.1668 17.254,-1.8655 18.8359,-5.8418 5.1871,-13.0383 10.4281,1.336 32.625,-8.4922 10.501,7.3682 0.3769,11.583 -7.7637,17.5586 -1.6633,17.5396 13.5116,43.0766 25.4121,52.5683 4.945,-3.3194 17.4394,-15.7085 20.8301,-30.3808 6.2238,-14.891 -6.3539,-28.076 -8.6308,-42.4278 -5.1749,-15.3594 0.032,-33.7922 -9.1583,-47.6015 -15.8023,-10.5469 -36.4267,-2.6614 -52.5546,-10.5606 -13.4419,-6.5835 -24.4686,0.4067 -37.6934,-11.2597 -9.515,-8.394 -14.0983,-21.5759 -24.5156,-20.8965 z m -200.7266,465.5761 c -6.3422,0.3838 -13.0978,5.8472 -16.1972,11.4317 -5.0628,9.1219 -12.3743,16.4003 -21.5958,21.541 -8.0349,4.4793 -27.5381,11.2837 -28.6074,1.541 -1.2947,-11.796 -14.9,-7.4812 -11.4707,1.002 1.4166,3.5043 4.767,6.5151 2.4453,9.582 -5.054,6.6764 -6.0726,19.613 3.7969,21.5098 9.8997,1.9026 10.5708,14.5692 14.3242,22.1093 5.2328,10.5118 -7.9372,19.4257 -4.0859,28.7618 3.8025,9.2174 1.389,18.4123 0.8476,27.7539 -0.5714,9.8593 -2.6327,19.4006 -4.6562,29.0879 -1.7972,8.6036 -7.0618,25.1112 4.3164,27.0117 7.3863,1.2338 10.4788,3.7882 15.998,7.3965 6.8866,4.5021 17.0288,-0.3308 23.5098,-5.8204 6.1669,-5.2235 5.2332,-12.5834 7.8418,-20.6933 2.7585,-8.5759 15.1737,-1.6304 21.7988,2.2637 10.1299,5.9541 16.2706,-2.0715 17.5899,-10.3262 1.5319,-9.585 1.8615,-20.7659 4.416,-30.168 2.6761,-9.8496 -0.353,-23.7421 5.4824,-32.8008 6.4715,-10.0462 -3.4527,-9.9025 -6.832,-17.0566 -4.3017,-9.107 8.7994,-13.8722 13.1094,-21.2578 6.1521,-10.5421 -4.6096,-16.4972 -5.3203,-25.2227 -0.8878,-10.9007 -0.9902,-22.905 -8.7852,-31.4453 -6.5868,-7.2165 -14.6965,-12.2362 -23.6504,-15.5937 -1.3695,-0.5135 -2.8118,-0.696 -4.2754,-0.6075 z" />
  <path
     id="Germany"
     d="m 2454.0645,1133.4531 c -13.1397,3.7777 -27.596,1.8893 -41.3067,4.6641 -16.9759,-3.1871 -8.9662,16.1211 -15.2031,24.3008 -15.3371,11.3763 -35.3298,15.4848 -54.1231,13.334 3.3629,12.9869 13.3298,25.8092 10.9317,39.6171 -7.2591,12.2344 -12.5623,24.7102 -13.2754,38.8008 -6.9683,10.3458 -28.3484,12.2144 -25.2012,28.2813 9.29,8.3688 26.1188,6.7739 32.0098,20.0468 5.0346,17.1017 21.8675,15.849 36.1211,16.8692 14.0854,2.5804 18.693,21.0878 34.0488,21.3652 16.7997,3.7153 26.2982,-14.0515 41.5957,-15.5078 18.6836,2.8147 34.1991,-10.3969 47.6797,-21.3613 11.1444,-7.0169 25.2169,-8.6578 36.2227,-16.3574 10.5458,-6.1818 11.6523,-22.0399 23.2382,-25.6368 -7.7929,-10.0025 -0.5443,-19.4053 0.8028,-30.5781 0.6383,-14.4265 -5.4049,-28.2187 -5.5371,-42.6855 -1.6324,-14.4427 -0.8102,-32.786 -14.334,-41.9043 -20.4598,-5.7046 -39.9101,14.7287 -59.9766,4.7617 -12.4143,-3.8292 -21.6324,-14.1497 -33.6933,-18.0098 z m -623.5801,53.4961 c -3.3939,5.9585 -2.2264,27.4034 7.6172,35.2324 18.4344,15.3373 -28.7809,-2.9504 -21.8164,15.8965 15.3887,-0.2271 19.7739,37.9749 -0.1778,22.6856 -17.8862,-4.4782 -13.0447,25.5784 -29.2246,14.623 -13.5213,9.0084 -17.8881,-11.6576 -31.7676,-9.8574 -15.9058,1.7889 -39.5229,-4.7762 -44.1816,17.0195 -11.1456,14.9155 17.3972,11.3818 6.6602,22.2422 8.0908,8.1566 6.2604,19.6888 2.498,30.5176 12.5356,11.4341 0.97,26.3826 -1.8184,40.0625 -5.2345,7.451 -37.0657,4.1477 -22.5957,17.2266 24.2823,2.0445 13.1395,36.823 -4.3554,40.9238 3.7789,18.1107 -16.5355,21.865 -20.8164,35.8008 9.7308,8.8861 14.874,20.5797 4.9492,32.1308 10.3251,5.4749 5.5638,16.7025 9.3398,25.5996 15.2589,17.7965 -8.6999,38.3039 5.9395,56.1114 l 0.7949,3.8418 c -10.8907,14.073 -10.0519,25.7848 -6.8203,41.7832 -3.8744,18.6559 12.566,35.8835 0.012,53.4824 -12.7486,22.1932 20.995,16.638 26.7344,32.1933 11.2844,12.3206 30.4507,14.2361 43.6855,25.2461 8.5948,16.7203 -14.3729,29.6491 -26.4551,37.6055 -17.0701,9.4382 -13.7533,31.8963 -28.2304,43.4414 4.7206,12.7242 29.7445,7.4288 41.8281,13.8574 -2.3477,-10.5631 1.3608,-23.5678 15.9824,-20.664 11.5519,8.8447 26.6881,13.2422 41.8731,19.0254 14.638,15.9039 25.0553,-4.0666 42.3652,-5.0606 11.3891,-17.2859 29.8356,-7.659 45.5254,-4.791 8.6069,-17.9927 28.2648,-14.0918 43.5176,-6.0566 21.8943,4.6327 38.7695,-14.5151 57.3769,-22.4688 17.432,-4.3594 38.6988,-6.6815 54.7539,2.6641 10.3934,16.3598 19.7647,7.6815 12.211,-8.5274 -0.3719,-19.2199 -27.818,-42.4446 -3.3223,-55.916 20.8821,5.8601 20.6244,-18.2987 33.7441,-24.8691 13.9061,9.4903 22.3789,-12.847 7.9473,-17.6211 -15.9416,-12.1751 -29.1553,-27.3857 -40.7226,-43.6387 -16.3952,-2.4104 -25.3383,-12.3318 -27.543,-28.4434 -13.7842,-13.3632 1.1694,-35.3085 -21.6377,-50.6177 l 28.0986,-15.183 c 27.6345,0.4986 41.9174,-26.5138 66.6016,-30.795 17.1601,1.0485 30.1065,-31.947 45.9453,-14.0683 13.2931,12.7198 22.8178,-18.9598 39.2637,-8.336 7.4283,16.7952 28.337,10.0539 37.6816,24.3555 8.9451,-11.8329 19.3212,-26.3669 15.9942,-42.0508 -5.4716,-19.2659 -29.2208,-13.0951 -40.6407,-24.5293 -2.3054,-15.6391 4.9766,-42.5457 -20.2949,-42.0019 -23.994,-1.0592 -5.8826,-35.0189 -25.0156,-36.9297 -19.1441,-0.5215 -31.194,-20.5647 -28.0508,-38.3398 4.4706,-19.4225 -28.4621,-20.247 -19.7109,-41.209 6.2905,-15.7441 26.9464,-26.1098 21.8906,-45.7364 5.7068,-20.3697 -27.9489,-7.4396 -23.3555,-24.4355 -5.5071,-4.2565 -3.8109,-24.5808 -15.2793,-14.2637 -8.7898,0.9865 -24.6568,-4.6122 -26.8262,-14.7129 -4.8441,-1.0628 -12.3867,-3.0807 -19.3457,-3.2656 -6.9588,-0.1849 -13.334,1.4633 -15.8398,7.7344 -5.3665,20.1908 -27.5495,19.2499 -40.334,29.7422 -4.8953,18.4334 -21.1734,5.6138 -32.2793,14.2656 l -4.7324,0.9922 -3.7969,-3.8106 c 4.2566,-6.3762 13.9297,-6.4553 17.1016,-13.8359 6.284,-15.0379 -7.7652,-19.3047 -17.3067,-9.5059 -15.2035,-0.4987 -42.0088,0.9218 -40.7636,-20.4199 -24.7046,0.1825 -51.1722,-1.4085 -72.875,-14.3418 z" />
  <path
     id="Poland"
     d="m 2759.6758,1052.668 c -2.2666,0 -4.7566,0.3097 -7.4981,0.9804 -21.9312,5.3662 -27.532,13.7646 -45.2636,13.5313 -17.7319,-0.2333 -13.7372,15.7611 -19.3653,21.9316 -6.4207,7.0395 -9.623,8.8192 -13.5,21.6875 -3.877,12.8683 -2.8772,25.5576 -12.455,25.9004 -36.5272,1.3073 -30.474,10.2486 -31.5118,64.3418 l -35.7617,22.1934 c -9.4514,-1.8259 -16.2471,-7.3278 -23.4648,-13.2012 8.6239,35.0702 -11.538,34.9466 2.8867,52.627 -24.4713,16.4932 -16.4931,28.7043 -51.1484,39.8984 -18.6426,6.0217 -35.0641,23.7175 -44.5586,25.0352 -17.7475,2.4627 -32.2244,7.1222 -47.5941,16.4127 l -17.1052,3.4818 c -18.9579,-5.6547 -30.3962,-27.7258 -54.0195,-22.1758 -17.2937,-8.2573 -22.9905,-32.2474 -46.1211,-32.1484 -17.7199,-18.3721 7.6187,-34.7013 20.9043,-43.9278 -0.1592,-22.0712 20.2933,-39.5051 5.6641,-61.3554 -4.5174,-16.267 -14.6233,-34.571 -31.0157,-35.0762 -3.7826,-0.1166 -7.9003,0.7154 -12.3613,2.7383 -24.9284,4.6446 -50.0283,10.8327 -72.8926,21.9882 -12.9848,17.8364 -35.322,16.979 -53.9726,24.7305 -17.6019,3.8469 -34.5322,26.3571 -51.9766,18.7129 -9.1677,-10.9129 -26.4951,-13.198 -14.2383,2.5859 -1.5784,14.7597 16.1454,13.6273 27.17,15.5118 8.1332,17.7169 4.5094,37.5877 -11.3789,49.2832 -14.628,14.4719 -2.702,27.9282 10.7168,35.8164 1.1324,21.7086 4.592,49.3082 32.7187,47.8515 15.4035,9.1011 -0.012,35.7697 24.1582,36.9844 26.928,0.6153 12.1729,36.089 22.75,44.4883 20.8278,3.9577 46.5824,18.8138 37.541,44.1094 -1.4693,12.1667 -26.4189,32.6554 -5.4765,29.2812 4.0129,11.0143 3.8601,34.7528 21.0468,19.1504 15.387,-13.2281 34.0866,-2.4249 50.9864,0.5449 19.1005,1.4994 -1.4681,29.9712 22.6601,20.9297 12.6666,4.6516 20.0719,17.3389 35.3633,19.166 l 5.2109,6.8594 c 13.7952,13.7584 23.9686,32.5823 38.0313,10.9668 6.7662,-6.5328 18.4314,-7.6991 25.6641,3.5 7.2325,11.1991 -8.4535,24.6029 6.7656,24.7305 20.0917,0.1684 11.9345,-14.4815 16.916,-19.1309 5.2496,-4.8996 13.4149,-9.3327 26.4805,-0.4668 13.0654,8.866 16.0997,-1.6342 19.1328,-5.3672 3.0331,-3.7331 14.6984,-2.7985 26.1308,-1.8652 10.9067,0.2679 38.5046,-11.4032 25.4317,18.1973 26.1258,-0.3187 34.0716,19.1157 49.2734,23.1191 21.5741,5.6816 45.9626,-20.341 83.9356,19.1543 4.6054,-14.7236 9.4581,-17.2699 19.8457,-24.1914 32.4052,-21.5926 58.6906,1.3179 73.0273,-8.2832 -28.1859,-42.897 -2.8635,-63.3548 -13.7656,-76.877 -5.8318,-7.2335 -14.4445,-10.0173 -14.6992,-29.9804 -0.4572,-35.8331 14.3026,-29.5293 30.0976,-51.2129 11.6894,-16.0475 3.6154,-28.1131 4.082,-35.8125 0.4667,-7.6993 6.5334,-9.6829 12.1329,-15.0488 7.7724,-7.4484 -0.4651,-34.5988 15.5156,-37.2149 -3.8287,-0.4279 -14.5923,-2.2899 -13.7656,-15.8652 l 1.5742,-5.0742 c -19.4144,-36.9722 1.5838,-59.3031 -21.1719,-61.42 -10.0325,-0.9332 -23.4488,-7.5826 -32.3144,-22.748 -8.866,-15.1655 -0.8165,-32.081 -8.9825,-50.7461 -8.166,-18.6652 -10.7005,-29.2466 -6.416,-35.3477 14.5822,-20.7646 15.3984,-29.0467 16.6817,-39.3125 1.7938,-14.3501 12.1331,-16.0993 18.1992,-26.3652 6.0662,-10.2658 13.764,-40.0133 9.5644,-52.3789 -3.6747,-10.82 -8.5985,-25.8377 -24.4648,-25.8281 z" />
  <path
     id="Britain"
     d="m 185.64062,444.24609 c -1.49264,0.0113 -3.06505,0.3073 -4.7207,0.92383 1.82121,74.87188 2.28822,155.20897 1.72461,213.06055 -9.01375,15.77539 -18.31457,31.3884 -27.46875,47.08398 28.66111,24.48006 44.60777,79.97154 40.86524,97.34766 -5.26402,24.44006 -27.06149,22.446 -20.05274,30.95703 13.47438,16.36251 40.40482,-13.71781 58.41797,-3.53125 14.75547,8.34431 17.84892,-13.50359 32.48828,-7.30273 20.8477,8.83053 29.94061,-12.87744 40.49219,-12.68555 20.64992,0.37553 8.94235,31.93111 6.08008,40.50977 -2.76264,8.27998 7.22657,4.17682 -5.80469,20.54882 -3.64993,4.58564 3.95624,16.26546 6.69336,13.40235 11.90731,-12.45549 46.15735,-5.14465 52.46875,-21.51953 8.46917,-21.9732 0.85166,-29.22388 -14.73828,-12.61914 -10.19618,10.85985 -25.45783,-22.3737 0.82031,-53.38672 8.60992,-10.16128 -45.468,-13.19746 -10.00195,-26.5586 17.17256,-6.46942 39.77941,26.706 51.08398,18.73633 25.40323,-17.90917 35.35039,0.73885 40.91016,-29.07422 3.44971,-18.49841 -1.97809,-26.21995 -3.16211,-43.6582 -1.5269,-22.48813 -16.49771,-25.5828 -8.11524,-61.64258 5.08885,-21.89125 0.18053,-44.39185 3.73047,-66.25586 2.18637,-13.46567 1.85184,-37.4899 -9.03906,-15.30273 -17.22529,35.09172 -36.4219,29.79142 -32.58008,2.01367 2.66663,-19.28061 18.33257,-40.60318 8.32617,-43.44727 -14.92642,-4.24248 -4.90071,-44.20079 -17.10547,-47.50195 -12.23031,-3.30808 -19.73292,-20.44217 -24.4082,-16.42969 -11.87513,10.19168 -1.44559,21.74335 -10.4375,28.84571 -14.2438,11.25058 1.65838,30.77546 -17.53711,45.44335 -16.96484,12.96339 11.95193,57.89118 -20.88476,76.60743 -29.0596,16.56337 -17.1851,2.46384 -26.12696,37.11328 -3.77029,14.60982 5.13385,15.20658 -17.81836,38.52734 -10.83044,-47.23395 11.96688,-64.3807 4.39649,-83.3164 -4.4259,-11.0704 -19.8188,-27.08986 -23.32617,-44.1836 -3.47101,-16.91646 -30.11242,-30.34752 -29.09766,-46.32422 0.79303,-12.48584 -3.68252,-76.54973 -26.07227,-76.38086 z M 1284.1602,786.72656 c -1.1219,-0.0838 -2.2545,-0.047 -3.3809,0.12696 -14.51,5.64732 -19.4183,24.33841 -36.832,26.55468 -10.9898,5.68052 -1.4622,25.29718 -18.5703,17.52149 -18.6649,1.47533 -24.6009,23.55087 -28.7227,38.68164 -0.9654,22.70375 -19.9572,44.93997 -43.7734,43.88086 -4.6844,15.68689 25.837,19.21979 26.8339,34.60742 -4.8297,16.92233 -24.335,25.66311 -26.666,43.8125 -3.166,15.68049 -17.6999,26.05059 -22.6211,40.17189 16.1274,11.1206 23.0579,-17.7889 33.6407,-25.7031 14.3761,-17.2753 31.5172,1.291 31.0722,18.1074 1.4975,18.0124 -20.3393,23.6991 -31.8652,32.832 -15.8089,6.9141 -17.3145,27.6263 -6.7246,39.5 5.7212,-2.31 6.6747,-21.6784 13.9258,-7.5 4.3576,12.989 16.3371,11.9471 21.0761,0.4473 8.7103,13.9701 26.953,11.7386 39.9707,5.0429 8.5057,-8.0021 22.6295,-0.051 10.5586,8.8536 -13.9411,7.3627 -29.7922,21.9198 -20.0195,39.0586 l 4.0059,13.5839 c -0.5093,8.6355 7.5264,8.0285 12.7441,4.9317 18.9946,-3.4583 3.7656,12.881 -4.7656,16.2656 -14.9849,12.1199 -14.9989,45.9928 -39.6914,42.291 -26.5968,-10.1866 -55.4365,-0.8927 -78.7774,13 -18.6555,7.9865 1.4591,13.4169 11.3907,8.5098 25.098,-3.1909 2.2544,32.1878 -6.5215,41.0527 -14.6468,19.0923 -40.8314,11.456 -61.1856,16.9356 -29.3128,4.5623 -7.663,42.773 14.7227,29.3476 14.9453,-6.933 13.203,6.5163 17.0156,15.0664 13.4854,-0.1213 27.6,0 26.3887,17.8731 9.1717,17.428 40.168,-5.4008 43.2617,8.459 -15.1422,24.8614 -43.2248,13.358 -64.4531,5.541 -23.8379,-8.1956 -42.5649,10.2041 -56.9414,26.2929 -19.7454,9.6146 -38.2574,23.023 -59.61528,29.2071 -13.27391,1.9951 -15.43851,2.4761 -1.5625,7.4941 10.58838,26.2441 31.26798,-1.579 47.23828,-4.3144 20.6389,-3.1266 34.5252,19.7162 54.4043,17.8066 15.3171,-16.7749 43.6632,-35.3117 64.3887,-15.5156 15.5534,17.203 39.8274,11.1444 60.0742,10.1367 30.1155,1.2478 60.4678,7.8147 88.1406,19.9336 26.8457,6.0647 56.8665,1.3653 80.3633,-13.0371 25.6295,-18.4343 -18.6384,-16.7606 -21.6816,-31.3867 13.6572,-11.988 32.826,-16.3661 47.1367,-27.9336 13.6344,-15.4295 36.9458,-23.2822 43.4297,-44.2129 2.4602,-28.4471 -31.2834,-54.0074 -57.9883,-43.0547 -7.5928,11.5901 -28.8869,8.6657 -18.3613,-7.3633 16.8339,-6.6979 29.8773,-19.8883 22.8925,-39.7598 -4.6827,-18.7314 -3.2036,-37.7405 -1.3183,-56.6914 2.1989,-35.1236 -36.4777,-52.3563 -35.8636,-68.3142 0.5234,-18.1824 3.6897,-38.1164 5.8401,-56.0256 -2.2595,-20.8986 -12.7825,-41.7837 -29.2226,-55.0938 -7.637,-13.2353 -39.3361,5.7107 -32.4434,-13.2539 8.8707,-12.2784 37.5165,10.2509 34.584,-12.83004 -5.9887,-5.19908 -13.0758,-11.86822 -0.4062,-13.22851 19.8635,-8.52458 41.0397,-19.3403 51.7421,-39.08399 7.2355,-14.91637 29.8994,-16.43794 33.586,-32.92578 -8.0704,-17.18208 -30.872,-13.6787 -46.1797,-19.38086 -20.3371,-7.11984 -40.57,-18.50287 -62.8984,-15.125 -3.1489,-5.02422 20.4357,-12.93088 4.2168,-18.0918 -3.4997,-13.34457 24.4766,-8.6264 32.416,-17.02734 13.2676,-8.23446 34.372,-6.30198 39.5937,-24.23828 0.7038,-19.02361 -27.0688,-9.40783 -39.3105,-11.96094 -16.7817,-3.20072 -36.0045,-3.55832 -48.9063,-16.33008 -2.7463,-1.95909 -6.0192,-3.29344 -9.3847,-3.54492 z" />
  <path
     id="Greece"
     d="m 2870.9707,2202.7363 c -31.5762,0.8802 -44.0916,21.3324 -62.4453,24.543 -6.2153,1.0872 -10.7008,4.3546 -17.2715,0.541 -8.2094,-4.7648 -28.3252,16.2813 -62.8027,-4.7363 -16.9897,-1.1863 -24.7032,33.3211 -56.4102,31.7519 -30.3247,14.484 -31.2244,28.6758 -43.039,34.3399 -11.8147,5.6641 -24.5487,-0.075 -35.6094,6.5996 -10.7068,6.4609 -4.6432,27.273 -70.3516,32.9492 23.7303,20.4851 3.699,72.0031 -22.0605,76.916 l -1.584,19.7422 c -16.9155,12.3779 -16.2868,10.5832 -12.7324,16.6484 37.376,1.2732 22.8764,64.0747 63.4433,63.0762 23.7794,-21.1688 7.1635,23.088 -6.957,29.916 5.9085,21.472 48.7308,17.8749 36.7773,46.7149 0.2189,25.6881 33.4196,50.0418 32,10.7363 32.4042,17.2846 14.5117,43.6885 35.2676,37.9063 1.3778,-62.4687 23.4711,3.4017 44.6035,-7.1446 -6.6172,-24.0299 -25.9586,-57.6523 -38.4687,-77.9551 25.0159,32.2948 60.938,3.8787 42.2793,-5.1425 -22.0095,-10.6412 -5.0331,-45.2507 14.7558,-26.2949 32.3435,30.9816 25.0086,-25.7719 13.8536,-32.9297 -39.7778,-25.524 -107.2446,-25.7459 -60.004,-49.3985 30.746,-15.3941 -29.7785,-43.4396 -40.9336,-63.914 -14.3784,-26.3909 8.1108,-69.4566 43.8633,-19.2539 12.5556,17.6301 68.9914,-9.8042 68.2578,-20.8907 -0.6596,-9.9678 -45.5721,-25.6865 -45.9062,-36.8632 36.9509,8.6205 36.6833,-20.6398 43.084,-19.3204 15.8216,3.2614 32.6026,12.4348 55.0195,-2.3847 14.2366,-9.4117 25.6503,1.3396 30.4922,0.1953 13.1085,-3.0979 -0.2124,-11.932 49.1465,-12.711 -1.0285,-15.0095 -0.1638,-36.1575 3.7324,-53.6367 z m -118.8613,487.4082 c -6.6484,7.223 5.8536,20.2138 -3.9668,24.4278 -5.69,0.4115 -5.0339,-14.8931 -7.1563,-4.8438 -0.9072,4.4685 -1.6634,8.9781 -2.1074,13.5176 -0.1759,8.3716 -3.4706,18.7103 2.3574,25.6719 8.0998,3.28 16.4355,-2.5419 24.793,-1.5606 12.3722,0.3351 24.7468,-0.2542 36.9551,-2.3535 8.6012,-1.1762 17.2145,0.748 24.9648,4.4688 5.3699,2.4368 15.1325,-6.4183 14.7774,4.0566 -2.1616,11.9995 10.1294,17.4254 19.3574,11.2559 9.6073,-5.1386 20.6737,-6.3751 30.2031,-11.7325 13.3574,-7.4054 28.3649,-10.5674 42.6133,-15.7226 9.2576,-5.2511 21.7997,1.3559 29.4473,-7.0528 7.9447,-9.0157 4.9845,-21.7004 6.291,-32.5976 -0.6567,-10.1971 -8.5291,-1.9274 -9.2051,3.5801 -3.355,10.4832 -16.6278,2.9713 -21.8066,11.3808 -3.8883,3.946 -13.8932,17.4696 -17.0625,7.6387 -1.291,-7.0346 5.6352,-16.3558 -0.584,-21.7734 -8.2155,0.2251 -14.4842,7.7848 -22.9043,8.2324 -8.7577,-1.9561 -16.9288,-1.2458 -25.2461,2.332 -8.0593,-2.5282 -15.9334,-8.4332 -25.2031,-4.9258 -10.1597,1.7276 -20.1336,5.2602 -28.1485,11.9121 -6.7891,4.6591 -20.6594,10.7565 -21.791,-2.4296 -3.2959,-5.9787 -6.8803,-18.9145 -15.002,-17.043 -4.3602,6.9164 -13.0418,19.5969 -21.8964,10.8437 -5.2605,-4.4136 -5.5782,-12.8879 -9.6797,-17.2832 z" />
  <path
     id="USSR"
     d="m 3162.709,145.36328 c -2.6292,-0.0531 -5.287,0.21633 -7.9551,0.85938 -17.474,8.92582 -38.3232,4.4998 -54.3125,8.75976 19.0807,6.24941 38.8876,13.55169 36.1035,37.71289 4.6693,15.90317 -9.0883,46.24439 18.0957,41.43164 19.1159,10.78906 14.2618,65.51845 -13.9316,42.33203 -12.6994,10.23357 -35.8802,-8.23155 -35.6699,16.7129 -6.5093,19.51255 -30.0041,22.18607 -35.8379,42.52343 -25.1711,17.11796 5.3303,29.75375 17.3261,40.83594 -1.1667,28.0475 -34.5256,20.00262 -53.1113,18.47852 -16.3011,0.57176 -42.4712,-22.05323 -45.3301,4.89843 -18.7846,5.53745 14.6073,28.22251 24.5137,24.06836 19.7011,-16.40021 33.4145,23.99079 8.1563,24.6836 -19.9693,1.8679 -42.7596,-9.23139 -48.0137,-11.96289 -16.1878,6.20281 -29.3016,-1.81181 -28.1309,-18.98829 -10.5603,-12.49152 -26.7517,-24.60297 -14.4414,-42.56445 -8.2046,-20.36955 -37.8503,-18.8106 -53.9668,-31.85351 -13.4498,-17.73204 24.5381,-9.48326 33.668,-8.18946 21.781,4.16334 43.4691,-0.36929 65.0078,-2.21679 20.9842,2.96058 43.1135,2.77468 61.502,-9.35547 22.7272,-11.16295 36.9199,-34.63974 40.8964,-59.06836 -5.555,-19.75477 -17.6105,-43.58697 -40.9296,-46.75977 -26.7044,-6.31558 -54.6328,-9.14785 -78.9473,-22.88476 -29.3789,-10.47825 -60.614,-17.64851 -91.9609,-14.9336 -19.4084,-8.6694 -37.7678,6.96319 -55.8399,-6.59375 -18.9815,1.12939 9.5808,-26.38184 -14.9062,-25.01953 -1.3202,-0.12336 -2.601,-0.13203 -3.8477,-0.0352 -18.7,1.45531 -29.4481,26.53057 -41.7852,40.00976 -20.7057,33.82923 -38.4769,67.21979 -40.416,82.33398 -3.0563,23.82162 23.1482,9.32482 20.4903,44.33594 -1.7865,23.53263 -29.6985,30.10615 -8.9922,47.65235 16.888,14.5717 9.0943,34.80053 -8.0762,42.91601 -13.2643,16.75806 -3.9332,25.57573 12.9473,30.41992 -16.6669,12.33101 -14.2088,33.78886 9.289,35.95118 9.852,13.21556 1.5714,35.21779 21.9551,42.70312 7.8495,11.64303 -27.1416,32.66755 2.3379,34.8457 24.5706,-0.24707 38.2749,18.58451 54.6387,31.6836 17.2664,3.519 40.0104,2.27068 43.6933,23.39453 l 10.9727,12.86914 c -10.5454,13.54487 17.93,38.77455 -9.7227,35.70508 -5.5106,12.09869 7.0551,38.48949 -10.8066,50.68359 -19.7556,22.81618 -49.5,33.77419 -77.8809,41.30274 -20.6943,0.36218 -16.8458,14.56408 -1.3593,20.41992 6.8483,9.72967 35.8872,1.52608 32.9003,11.64844 -16.4229,3.01778 -21.6855,21.36457 -39.791,16.93164 -3.2557,14.65329 -11.5221,4.80057 -20.1269,4.94921 -4.4923,8.5456 8.731,23.3351 -10.3418,23.2461 -14.4014,-2.08838 -21.7216,0.46084 -13.4707,13.93555 2.3286,6.4681 4.6559,12.93619 6.9844,19.40429 25.826,3.74442 13.7172,41.33962 40.2343,42.05469 22.8497,5.80409 -10.092,34.41674 16.8867,36.89648 l -0.064,49.00977 c -0.9009,17.58634 -6.4321,34.75404 -14.6484,50.25194 -17.0329,15.9022 9.6541,15.0416 16.4589,27.0958 10.0357,18.9194 8.3949,42.4827 1.3672,62.1894 -3.1768,16.539 -23.8638,22.9095 -23.5586,40.1894 1.8222,17.8001 -19.0741,27.1657 -17.3632,45 6.8919,20.6261 14.0214,41.1872 13.5039,63.4765 3.4431,15.5334 23.5708,32.7141 38.8203,29.7012 16.5216,-8.267 25.1732,-24.5754 34.9023,-39.2186 19.2342,-20.2128 43.891,-34.7058 68.6719,-47.1368 16.1502,-10.037 35.2069,-4.1227 52.7383,-8.0644 28.0076,-11.9872 59.08,-10.0007 88.6797,-6.4766 15.7908,5.4463 32.0304,10.1887 36.0644,14.0879 19.5767,8.3986 29.8325,29.1255 43.0352,43.5391 l 4.9785,10.5117 c -5.4158,4.0803 1.583,30.6337 -14.4395,37.0859 -31.5113,25.6909 -73.9782,31.7247 -113.3535,33.6035 -23.7716,-3 -45.8419,6.8158 -66.7851,16.5762 -17.6681,8.0374 -37.3349,7.5725 -55.9219,11.3008 -17.9725,10.138 -39.0783,17.1467 -56.082,25.9296 -2.3414,17.0927 -5.8749,32.3267 -19.7696,43.8808 3.9801,20.5567 -1.3493,41.7279 -19.7461,54.0333 -15.8712,11.9702 -23.3411,38.4882 -9.6608,54.0937 14.2843,13.9498 11.1229,21.9696 10.9805,32.5 -3.7485,19.856 0.038,59.3696 26.6608,57.7676 20.5121,4.8577 47.4457,15.9671 46.4863,41.4824 28.0425,7.0034 8.522,42.8079 42.7305,43.2383 17.1254,18.8097 33.4446,40.33 24.1992,62.9043 -5.0426,20.7443 2.0318,39.2551 12.627,59.0429 9.632,24.8239 42.1883,18.1897 62.0683,12.1211 16.008,-0.3504 26.951,2.2409 18.8575,-16.3867 -1.7784,-29.0755 30.685,-42.4765 36.8085,-69.1152 5.6131,-20.8437 5.4065,-49.5441 32.9024,-54.0801 25.2288,-10.3805 39.6728,20.4096 63.5117,7.5996 30.0092,12.6829 58.5862,-5.937 81.0625,-24.9648 2.8868,0.1995 5.4936,-0.098 8.1074,-0.3828 -1.7587,11.3935 -1.9359,22.5693 -0.9629,33.4375 -1.9675,1.3418 -3.9085,2.917 -5.7422,5.1367 -8.3404,13.5528 -37.2363,29.3601 -30.7539,44.9394 13.0689,9.7689 26.4217,-16.5276 41.7247,-4.4375 3.15,1.2463 5.7098,1.8993 8.455,2.7383 28.0255,56.5501 93.5525,91.7806 162.5957,71.2012 68.6277,-20.456 108.7377,-89.5748 95.293,-158.4414 2.4344,0.1101 4.3631,0.3407 7.6504,0.25 10.6803,-1.0194 19.257,4.7262 23.623,13.0566 18.0502,7.7405 47.2823,-10.1575 64.4532,5.4375 l 39,-6.5703 c 0,0 132.266,51.0731 145.5175,49.3594 44.6967,-5.78 49.3825,3.5981 70.2637,7.1855 20.0169,3.4389 24.8504,29.3223 52.9395,51.3028 0,0 23.4459,-17.4246 36.0449,-24.8907 12.599,-7.4661 69.3811,-4.0742 75.4473,1.5254 6.0662,5.5995 8.1016,38.6738 8.5683,43.8067 0.4666,5.133 6.704,5.8351 12.4063,11.6758 6.9994,7.1689 9.7187,19.873 9.7187,19.873 0,0 27.3587,-15.6988 43.4531,-16.4121 18.505,-0.8201 50.8775,15.7506 69.375,24.6074 15.7574,7.5447 37.5391,2.5371 37.5391,2.5371 l 4.0996,-3.3789 c 14.2113,-3.7891 21.5925,-16.149 22.8535,-29.9433 4.7093,-11.3325 21.4836,-13.9839 15.1739,-29.0782 -0.6471,-12.2642 -0.9816,-32.6279 13.9609,-35.9336 14.8762,-2.213 17.0329,17.595 22.5156,27.5489 2.4569,16.0154 17.9344,21.8679 31.1367,13.4511 10.8185,-5.8182 11.7398,-24.9963 7.4766,-35.8808 -2.1189,-10.0248 -5.5189,-27.939 9.1543,-29.33 16.035,-3.2703 4.4597,-21.4207 5.8437,-32.0118 -0.5578,-16.2297 -1.1448,-33.8204 8.0704,-48 2.8457,-11.8017 9.199,-25.0129 23.1425,-16.8613 16.9725,5.5502 12.5637,-23.0418 -0.8398,-24.1894 -10.3833,-10.1537 -31.4459,7.5468 -35.1563,-10.041 l -28.4199,-46.7168 c -24.7336,-28.0713 -21.7273,-33.4838 -41.8027,-39.459 -7.8804,-20.3036 -26.5701,-37.3453 -36.8203,-52.1446 -13.894,-20.3379 -21.8723,-43.5173 -18.6035,-69.3946 -10.118,-15.1362 31.0502,-44.1354 1.705,-37.0039 -2.9112,15.0074 -14.7705,12.0184 -17.3574,-1.7363 -69.2254,-46.6524 -19.4872,-35.97 -12.9883,-89.5508 19.1848,-68.6125 42.5651,-40.478 58.4024,-61.9178 15.8373,-21.4401 18.1924,-56.4898 40.8613,-63.0664 25.9171,-25.9668 54.0611,-70.4341 88.6113,-86.9239 11.3021,24.2641 40.815,15.1192 60.2442,2.4434 l 4.1836,4.5019 c 28.8866,27.5297 22.505,39.296 14.3808,61.6836 23.8624,13.4873 -6.8516,62.4564 -22.0019,62.3614 -32.0673,-0.2011 -45.1408,22.6395 -56.752,49.9531 -14.2235,33.4582 26.7194,13.5969 13.043,41.8242 -22.4382,-15.3644 -66.1058,-8.3777 -43.3106,23.9023 31.5288,-6.361 31.7603,29.7952 49.7774,45.1543 21.5649,18.3841 -8.6953,57.6388 27.9238,38.1504 16.1641,38.5215 43.0279,9.128 64.0117,25.4063 l 2.4063,4.0332 c -12.7325,26.8873 -21.2831,59.5921 -2.5332,86.0117 13.8342,26.1239 29.4803,54.7526 19.8691,85.2168 -4.5677,17.2747 4.0456,66.4495 25.1406,38.2129 44.9952,-16.4206 -22.2472,59.5884 22.4473,48.2383 14.3078,15.0612 36.6568,24.8159 23.7305,48.4687 4.7616,45.2944 15.2294,89.7682 24.2695,134.3496 -18.1405,4.1595 -34.3863,10.0248 -22.4629,32.2461 13.7095,28.6509 57.9768,29.2578 52.7129,69.4375 -3.3624,38.9827 39.1122,35.6791 65.3145,28.627 28.2879,-7.1912 44.9015,-36.7068 74.625,-39.793 33.7453,-4.2632 33.5066,-45.2967 54.664,-64.8594 23.4557,-19.9976 51.3706,-31.662 81.6192,-36.7382 31.1096,-6.2316 56.0853,-25.6178 81.5605,-43.1368 36.533,-23.0383 79.6829,-29.2717 121.1719,-37.705 v -62.2266 c -145.4258,0.1675 -290.8958,1.1328 -436.2949,0.8027 -14.3305,-8.8816 -6.5181,-27.9601 -8.5157,-42 l 0.9063,-462.5371 c 1.9436,-13.3539 -6.8163,-35.8102 12.8887,-38.0742 106.3006,0.165 212.6017,0.3291 318.9023,0.4941 v -58.2363 c -23.097,-40.6392 -46.194,-81.2803 -69.291,-121.91996 0.726,-69.03927 -0.071,-138.16883 -0.3066,-207.23242 l -99.3692,-52.92188 -2.2812,-183.80078 c -85.8424,-0.64004 -171.7332,1.84797 -257.5743,0.18164 -5.5996,-0.23331 -16.3331,-9.33347 -16.5664,-18.66601 -0.2801,-11.20527 0.2344,-347.8711 0.2344,-347.8711 -198.4097,1.63227 -396.8182,0.52782 -595.2285,-0.0273 -47.6835,15.57267 -91.1548,27.81013 -106.3477,34.55664 -116.9766,31.38175 -232.6517,54.26058 -356.9726,67.19531 -86.0168,7.62715 -200.5492,26.35135 -251.5684,-40.82617 -3.5765,-15.97532 -8.8555,-20.80956 -23.4629,-15.45312 -15.3151,-2.64965 -20.8487,-16.89898 -37.6308,-17.60157 -6.4632,-21.56212 21.0704,-31.59583 35.4785,-37.89257 -8.816,-14.67883 -25.7872,-30.86835 -44.1914,-31.24024 z m 430.5664,1312.96872 8.4023,2.3262 c -15.2381,-0.4094 3.2203,13.8906 -2.7168,15.5488 -18.6613,4.6187 -27.2371,23.979 -44.7793,30.5528 -10.7746,16.1922 -24.0802,33.2047 -44.3437,37.0605 0.7651,16.951 24.581,18.8602 36.9082,14.3711 24.0953,5.3956 -0.2129,23.3429 -7.5801,32.2656 13.7993,30.6546 -16.1945,30.1798 -8.2129,48.3242 4.7859,10.6392 -17.9026,17.0473 -34.0215,20.6211 -16.1204,-34.4973 -45.5607,-60.5534 -81.0273,-72.4257 0.7744,-2.2479 1.605,-4.2905 2.2109,-7.1602 17.3604,-27.0848 33.8026,-2.7531 34.5274,-25.9551 9.9505,-15.2452 27.2558,-11.3329 32.7832,-31.6894 13.2851,-17.2345 37.2686,-17.813 54.9863,-28.6153 20.7638,-7.2523 35.782,-22.6323 52.8633,-35.2246 z" />
  <path
     id="Finland"
     d="m 2767.4297,136.81641 c -11.9459,1.09245 -5.9779,25.89485 -24.8633,18.84375 -7.2886,-2.7213 -15.4848,-3.73894 -23.3945,-1.90039 -8.1182,21.63467 -12.5026,29.81621 -18.7969,46.69335 -3.8666,10.36775 -9.1239,36.66811 -20.291,22.25391 -7.9256,-10.23014 -1.0781,-22.86337 -1.6309,-35.52148 -12.0122,-20.8118 -38.8655,-25.71064 -59.1699,-33.35352 -14.2337,-5.35776 -34.1245,-10.81682 -44.7441,3.73633 -12.4311,17.03562 6.8058,33.25176 -5.2325,52.58203 -9.6598,15.51133 -19.2805,26.78694 -37.2617,19.2832 -13.6043,-5.67721 -26.1505,-11.91454 -41.0761,-1.77148 -18.6162,12.65095 -41.8351,-4.06982 -55.2168,-18.56641 -9.7812,-10.59595 -35.5525,-12.78675 -38.4454,3.3125 12.7681,8.59556 26.6086,18.02683 42.3614,18.55469 15.8951,0.53262 11.9138,20.49025 29.8574,22.23242 23.3185,2.26404 4.4613,27.18645 10.1406,40.14844 21.7182,3.14551 15.8855,24.33303 6.2754,33.04297 0.9385,19.0405 17.5413,11.27497 11.418,30.24023 0.9238,9.41529 -1.8722,6.6655 -3.1992,19.15821 2.3524,14.2776 10.2189,35.41558 21.2871,41.75 21.1469,6.73687 59.3209,4.52647 57.3359,36.01367 6.6607,28.82006 -25.9987,30.05283 -35.207,49.37109 -18.4323,28.98086 -46.2409,50.81701 -73.6309,70.84375 -10.2264,17.55494 -29.098,25.05072 -41.9668,39.38672 -21.8827,20.78101 4.8945,39.18557 2.9649,62.35742 10.2838,20.44757 24.144,45.68459 10.955,68.22657 -17.8253,19.4783 -5.399,45.18094 19.6192,47.31835 16.204,9.33873 49.4003,-2.82957 52.0996,21.1875 12.9307,2.65508 38.5965,-10.99457 56.4492,-11.57812 44.1787,-7.99971 86.5571,-24.17897 129.7051,-36.31445 25.2953,-1.74591 50.624,-5.49924 68.6523,-23.55078 29.4709,-7.285 60.6531,-16.46181 81.0254,-40.61524 24.2477,-12.19377 -8.0118,-48.30711 19.418,-54.45703 1.8042,-6.73788 -2.3648,-25.64057 -4.2383,-35.35547 -11.5981,-16.59045 -28.0403,-21.69968 -48.0293,-23.81445 -15.6763,-11.77838 -29.6684,-28.67111 -51.1016,-30.65821 -25.1187,0.0755 -16.6711,-21.48935 -8.7031,-34.36328 -14.1755,-10.33516 -13.4019,-29.6038 -21.2773,-43.81054 -18.407,-7.41793 -29.7712,-25.04644 -13.7988,-40.42188 -20.8886,-1.69509 -18.8061,-22.719 -8.5918,-36.56836 10.329,-5.40768 19.1196,-5.4705 15.9003,-20.42773 -1.0923,-17.34492 -26.6791,-23.99411 -8.6171,-42.84766 9.5166,-9.93392 16.2024,-34.99421 2.4179,-43.74219 -20.9173,-13.27457 -12.9848,-31.664 -6.166,-47.51953 6.2712,-14.58206 13.7033,-26.93235 21.2207,-39.5957 10.2776,-17.31319 20.7273,-31.82887 35.1641,-48.80664 7.0933,-8.34168 23.5769,-17.16558 0.3828,-20.97656 z" />
  <path
     id="Persia"
     d="m 4259.9219,1783.7676 c -7.4029,0.3984 -14.9007,12.6112 -10.1719,21.9258 10.268,19.704 -12.0649,27.0075 -15.5586,43.2363 1.8687,22.6023 -25.7593,29.782 -42.5801,35.7851 -22.2027,1.7017 -41.0019,-13.4414 -60.2519,-22.3046 -17.1719,-8.4273 -40.1628,-14.68 -57.3555,-3.2364 -13.1965,1.7296 -34.5329,13.0941 -18.3125,26.5723 27.0492,7.5767 -14.8686,31.1149 7.625,39.3164 26.4975,7.8146 4.3042,33.0232 3.8398,49.9902 9.1354,14.7347 26.1664,28.9065 15.211,48.8692 -5.7624,14.9504 -9.2213,32.0307 -0.4551,46.6738 10.4094,12.7764 18.5448,27.2542 22.6719,41.834 l 7.8164,5.7148 c 6.8702,11.9716 17.2806,21.927 32.6641,24.2657 19.6532,6.8799 20.5265,30.3814 30.0371,45.7558 9.1953,14.9509 33.1727,13.238 37.8574,32.8711 7.5275,15.8252 29.3789,16.4332 37.7461,30.8711 3.4866,21.0576 21.1674,37.5845 42.6094,27.375 14.3207,-6.2581 41.3211,-3.5966 32.666,17.75 -14.8648,3.2394 -16.6099,15.4236 -10.5489,27.9375 0.5387,19.6907 7.8745,39.4937 3.0274,59.1406 3.7174,20.4689 33.0066,7.301 46.6074,5.1328 12.8982,2.5499 13.0398,-22.446 19.4961,-6.6953 7.9946,12.2644 18.7529,26.5325 35.5801,19.7735 l 8.789,82.1093 c 1.8103,16.1929 -9.2823,37.6452 7.0996,49.2793 17.1823,4.0591 23.8331,20.6382 28.7364,35.875 5.7203,14.4282 23.8858,20.776 25.3144,37.459 12.2559,7.8357 25.8307,12.1456 32.5938,26.2051 15.4756,3.5876 36.833,-1.3671 42.8808,-17.9473 0.049,-16.5703 16.1467,-19.6448 24.3848,-29.3105 10.8133,-13.2632 26.9546,-22.045 36.0488,-37.2442 1.0821,-22.7004 3.5513,-45.6219 10.8008,-67.2656 8.4728,-19.0218 19.4982,-36.981 25.4141,-57.1679 0.5544,-13.4717 21.6619,-36.7538 2.3379,-41.9571 -11.9911,-8.389 -25.4614,-17.6023 -31.7891,-31.0879 6.4852,-13.9652 3.459,-28.2884 -2.3027,-42.0918 -1.1159,-29.8745 -20.6288,-44.1532 -40.5723,-62.1074 4.2541,-7.001 -3.2477,-27.773 7.9414,-37.3613 13.379,-18.6582 14.4459,-46.8823 -3.2617,-63.3047 -11.9332,-12.8229 -36.555,-29.6594 -17.6211,-48.1797 11.5005,-14.9803 32.467,-22.9649 38.0371,-42.0234 6.9518,-15.6912 -3.7201,-43.6778 10.8633,-51.3301 -14.6771,-11.9061 -6.2352,-33.8297 -12.8731,-49.6445 -3.8006,-18.743 -23.5605,-20.2722 -36.7402,-28.4825 -10.1241,-12.4657 -22.1262,-29.0667 -15.3203,-45.8398 -8.6717,0.9034 -31.9214,17.0997 -46.1816,23.5215 -15.3047,8.0297 -32.3589,20.7792 -49.5508,9.6855 -16.9945,-0.8628 -32.5856,-4.9491 -48.0625,-11.4316 l -19.2481,-25.7813 c -16.345,-7.157 -35.0192,2.0209 -52.1816,-2.8418 -14.6896,-9.2193 -18.1204,-28.2562 -22.6348,-43.7773 1.6313,-19.6932 -11.9014,-7.9837 -23.2344,-5.0918 -18.4155,3.8294 -23.6881,-20.8731 -31.0097,-33.2578 -2.1693,-6.0828 -5.514,-8.3432 -8.8789,-8.1621 z" />
  <path
     id="Norway"
     d="m 2597.6211,46.347656 c -5.7506,0.205533 -11.7586,1.459946 -16.9531,3.566406 -21.815,8.846347 -12.7982,20.502065 -13.0313,32.738282 -0.3333,17.496226 -15.5517,30.010566 -15.0176,4.5 0.9882,-47.198202 -24.3387,-6.799689 -32.8769,15.964846 -7.7303,20.61072 -30.9038,11.80187 -14.6817,-6.482424 21.3616,-24.076872 9.3343,-36.104547 -32.5957,-33.066407 -19.8862,1.440919 -7.7625,26.939885 -19.4003,26.320313 -40.4183,-2.151759 -0.1897,34.641848 -25.8868,44.431638 -23.1972,8.83747 -70.2835,-7.07329 -73.6308,8.41016 -4.1154,19.03672 -8.6243,41.50491 -37.2071,31.12305 -10.8604,-3.9448 -16.6295,10.30165 -29.6972,13.23242 -13.0677,2.93074 -33.4339,-5.45484 -42.4727,2.08984 -27.6455,23.07558 -32.7337,16.74014 -47.3887,30.36914 -27.6606,25.72426 0.9637,36.25515 5.2872,51.51758 9.4459,33.34653 -30.2243,-9.80656 -57.2754,-5.74414 -21.3815,3.21096 -46.1153,7.20156 -45.6543,24.64844 0.5575,21.10341 36.0776,11.89177 -14.3125,33.68164 -31.6343,13.67933 -5.3284,21.95176 13.834,14.66797 22.931,-8.71638 42.3697,-21.20516 65.9218,-24.44922 21.852,-3.00988 -16.0041,16.13899 -23.2129,22.01758 -19.7082,16.07164 -12.9047,33.66799 -20.416,52.95507 -5.9389,15.24924 -27.9575,38.33122 -33.3318,41.21771 l 1.3123,8.20222 c -18.6215,14.19481 -8.107,16.74828 -22.8379,30.91406 -10.6136,10.20637 -2.7019,21.93825 -9.5762,26.55859 -5.7204,3.84472 -6.1015,6.77794 -7.9922,9.42578 -1.8907,2.64785 -2.1055,6.59529 -3.8847,10.10157 -1.7792,3.50626 -11.2323,5.13107 -10.2403,10.37695 1.9989,10.57083 -2.2148,16.90642 -2.2148,24.95703 0,6.32655 -20.5091,0.66949 -37.2891,14.3418 -15.4435,12.58346 5.6353,10.24778 1.6172,21.86133 -2.859,8.26342 -12.5695,-8.59726 -21.5703,-0.83399 -4.9497,4.26921 -28.7327,13.15248 -35.2441,26.33399 -9.9197,20.08104 -20.3456,10.8496 -21.6485,26.50976 -0.3096,3.72068 -12.5385,4.53931 -28.4121,12.23633 -15.8736,7.69702 -20.343,28.10391 -69.0605,30.28906 -11.9969,0.5381 0.6092,17.90227 -31.2246,22.19336 -11.5278,1.55391 -5.3451,8.73325 -13.5489,16.98828 -8.2038,8.25503 -24.6119,4.28736 -28.8242,15.74414 -4.2122,11.45679 -7.8941,33.67289 -7.4472,44.83203 0.447,11.15915 7.8623,12.35172 5.7812,20.25782 -8.4743,32.19291 35.6936,11.95162 2.9805,46.34765 -32.6446,34.32379 47.8347,9.23519 23.1816,31.05664 -14.7729,13.07608 -30.6788,19.01273 -9.3086,34.52149 15.3454,11.13651 26.3394,12.71741 32.5059,14.81836 34.7964,-31.65287 84.8919,-46.48664 129.0449,-35.15039 5.7142,-5.9383 22.884,-3.7887 28.4707,-6.75782 11.1869,-5.94537 14.6958,-17.70465 19.791,-17.06445 6.2901,0.79033 10.403,24.04883 27.666,4.60352 17.4122,-19.61301 -4.0191,-22.41889 -0.1054,-32.91016 8.1742,-21.91223 23.1196,2.44788 40.9082,-39.18359 15.3921,-36.0229 -9.242,-38.22335 -8.5977,-49.38477 0.6443,-11.16143 20.0513,-4.92779 25.6856,-17.14062 5.8246,-12.62542 -13.7445,-16.19759 -15.6446,-33.41407 -2.5942,-23.50649 14.2543,-29.21801 7.9571,-45.25195 -6.7541,-17.19747 28.1263,-82.16453 40.9121,-93.17969 10.9275,-9.41422 30.1231,-3.22038 39.1777,-8.43945 6.5035,-3.74863 13.3858,-13.38885 5.2207,-24.25195 -5.254,-6.98994 2.2446,-29.18635 11.4414,-49.53516 10.462,-23.14814 18.9806,-12.0457 21.1875,-26.39453 7.6069,-14.73052 5.5024,-21.22244 11.961,-36.19922 4.7049,-10.91054 28.2045,-8.90092 25.6621,-24.74023 -5.5721,-34.71406 38.3881,-40.95951 36.0879,-64.48047 -1.7355,-17.74576 11.0856,-33.87749 23.7128,-36.08594 22.9467,-4.01315 10.3422,-11.47811 22.92,-16.62109 14.7058,-6.01309 19.118,14.89588 24.3047,-14.52344 1.6511,-9.36502 11.8102,-13.28165 23.0996,-9.35352 42.3046,14.7199 33.4521,-15.98142 40.7011,-33.32031 12.2477,-29.29534 51.338,-30.62193 71.3731,-10.60547 36.191,36.15748 51.3835,-13.36403 78.2109,9.67774 22.5197,19.34195 44.6019,-12.69438 40.7227,-30.35743 -5.2523,-23.91589 -8.2511,-39.13449 18.8086,-44.92968 24.2455,-5.19255 46.2872,5.88523 67.2617,15.70312 56.0017,26.21365 16.3818,52.08033 32.5723,62.23047 11.6663,-20.28088 19.156,-42.66532 28.5371,-69.08594 -9.0408,-7.66084 -26.5827,-10.3555 -34.9668,-12.66211 21.6732,-17.85286 73.2089,-19.43376 34.6816,-47.890622 -39.7216,-26.092622 -50.471,-8.613584 -55.6406,-18.402344 -8.1327,-15.399342 -26.8041,-14.907339 -31.6895,1.677735 -3.1951,10.846804 -14.9146,6.878241 -12.5566,3.458984 16.257,-23.573635 1.3183,-32.395893 -15.9336,-31.779297 z" />
  <path
     id="Sweden"
     d="m 2383.3613,214.3125 c -0.6836,16.53353 -6.9694,18.15947 -6.3652,29.33008 0.8845,16.35285 -22.3454,22.52089 -34.3789,16.75195 -24.0629,-11.53591 -26.9543,11.44988 -31.0606,25.04492 -2.2651,7.49946 -13.913,-10.29984 -24.7324,2.66993 -10.05,12.04741 -41.9301,5.88889 -39.3125,45.59765 1.5135,22.95995 -41.1615,32.00611 -35.414,57.72266 5.2797,23.6234 -26.5998,19.89944 -30.5743,36.49804 -5.7301,23.93029 -3.0902,31.92108 -20.123,43.44727 -12.3052,8.32699 -29.176,49.99485 -17.1895,65.93555 -1.2414,27.43651 -10.3184,23.87515 -35.4589,25.26562 -18.301,-0.12319 -24.3246,19.45729 -32.5274,32.24414 -7.2346,11.27755 -13.93,23.87852 -17.957,34.73633 -5.4406,14.66913 0.7603,29.65257 1.3535,40.82422 -13.5063,5.96777 -14.9737,27.06356 -8.7773,39.35547 3.9457,7.82744 22.5747,19.3936 11.0546,31.18164 -11.1533,4.65096 -34.1628,6.95817 -16.1679,23.26172 7.2211,9.48682 8.2336,16.3975 3.4648,30.02539 -4.7025,13.43858 -10.0053,19.18959 -19.5527,35.84375 -16.2878,-3.02187 -37.4631,12.28283 -18.5625,24.88672 4.0149,17.83041 -26.9293,30.53963 -20.7832,50.46484 -7.5482,14.77085 3.4886,26.04719 16.498,25.73633 11.505,-10.96894 13.4454,-1.01256 8.5801,11.54883 10.6185,12.06053 25.8306,38.74505 31.1797,58.07225 6.4259,23.2175 10.4478,63.5176 1.1543,92.0586 22.8812,13.2156 27.6419,-9.1295 54.9648,2.1524 13.9389,-14.6889 -6.4127,-20.0421 11.8848,-32.6719 12.1743,-8.4033 20.7521,-9.3889 33.1289,-10.8907 20.6567,-2.5062 33.5222,10.9538 31.3398,-3.4765 3.2798,-18.124 28.7126,-30.4905 30.5645,-58.78322 0.9343,-14.27401 9.411,-1.40942 18.7695,-68.07226 1.4856,-10.58212 11.1263,-28.14426 23.4258,-28.21289 11.6028,-0.0647 14.7624,-14.296 29.5313,-9.89844 11.0544,-13.94009 13.9579,-7.44477 29.9179,-21.64453 8.3952,-7.46925 5.4875,-12.48088 0.6035,-17.28906 13.2097,-3.17075 14.9011,-11.77115 28.211,-11.71485 5.0331,-12.97419 -4.6904,-20.42457 -11.0528,-28.87109 -7.9616,-10.56972 -28.1635,-12.05059 -34.6464,-27.88086 -16.6704,-4.09781 -21.0638,4.2068 -29.7774,-25.17578 -5.0225,-16.93614 -23.5447,-22.07363 -1.3828,-32.61914 -16.7559,-13.69115 4.7563,-24.59508 -8.2012,-37.4961 -14.9871,-14.92167 24.034,0.0934 21.875,-24.64843 -0.6614,-7.57929 15.7117,-1.80687 23.2871,-27.25782 3.7275,-12.5229 20.0899,0.0289 24.7207,-17.78125 l 8.5972,-7.14737 c 11.0835,2.87359 12.3471,-8.63148 32.5454,-17.41903 10.7735,-4.68717 26.859,-14.57453 27.0664,-26.74805 0.3805,-22.33565 41.8669,-22.57219 18.3457,-36.83203 -26.4955,-16.06309 5.5763,-22.30025 3.1524,-35.08789 -2.7364,-14.43616 31.5959,-20.92204 30.3926,-33.04688 -1.8366,-18.50611 -5.1766,-41.38962 14.8964,-34.30859 30.4268,10.7334 24.0366,-2.91203 42.209,-4.20117 1.2552,-8.67854 0.305,-11.06544 -4.834,-17.60742 -18.7632,-23.88607 4.7867,-40.37625 -6.0546,-50.43946 -8.9848,-8.3395 -18.6593,-24.82454 -9.4043,-31.45703 12.5978,-9.02805 7.9805,-17.06757 -1.0079,-17.44336 -20.6271,-0.86242 4.2286,-35.21844 -11.5117,-37.96875 -17.8284,-3.11514 -16.9978,-26.22041 -37.1875,-25.79687 -17.0265,0.35718 -34.3012,-18.94411 -48.7168,-20.76758 z" />
  <path
     id="Libya"
     d="m 2579.084,2860.7129 c -6.6019,0.1727 -13.1649,0.9036 -19.6504,2.4453 -36.7197,14.9504 -75.9696,29.3744 -104.2676,58.2227 -15.0062,19.9514 -4.5409,47.7598 11.7891,63.6015 9.5096,26.3853 -21.946,48.2794 -41.6699,61.5508 -29.1815,23.7528 -73.5882,-6.6589 -76.625,-10.6445 -21.3108,-20.2452 -50.1083,-27.5619 -77.67,-34.709 -27.1777,-9.1039 -55.8601,-13.1845 -84.4726,-11.2188 -20.4578,-2.3479 -42.6025,-9.9487 -56.1055,-26.2343 -15.561,-15.3637 -3.0848,-47.8352 -29.7969,-52.6524 -20.0592,-3.6896 -42.2228,0.1021 -59.1953,-14.125 -17.787,-14.0094 -41.6156,-5.358 -60.6445,-14.0332 -3.6406,-1.9412 -7.2517,-2.7857 -10.8535,-2.9101 -15.6078,-0.5394 -31.0264,12.4542 -47.7617,8.4277 -16.6258,0.952 -39.2389,-16.0203 -42.4434,9.084 -9.4024,19.3257 -13.4275,40.4608 -15.9844,61.584 -9.3131,21.3699 -5.3036,46.9639 -19.2851,66.3711 -6.1974,9.9359 -11.8354,20.2113 -17.3477,30.539 40.4372,22.6337 81.6894,43.9472 124.3418,62.1192 336.3084,-0.8134 672.6195,0.5758 1008.9277,1.2773 0.176,-37.941 -3.8059,-76.0761 -0.4785,-113.8867 5.5256,-23.5733 9.6175,-47.7118 5.0977,-71.8789 -20.9251,-15.278 -49.9063,-8.3969 -74.4746,-12.6231 -24.0927,-2.2528 -49.1171,-2.8123 -71.1582,8.7871 -20.8145,-1.7297 -28.0226,-40.9198 -55.5723,-26.1933 -25.6145,7.3945 -50.4523,-7.2675 -76.4941,-5.1914 -28.5022,4.6746 -21.2324,-34.4812 -48.7657,-31.0391 -19.4752,-2.6854 -39.6336,-7.188 -59.4394,-6.6699 z" />
  <path
     id="French North Africa"
     d="m 1773.3594,2662.7676 c -12.4181,0.1818 -19.7684,2.5289 -32.834,8.4492 -14.9321,6.7661 -18.897,13.0658 -34.0625,16.7988 -15.1654,3.7331 -44.8199,9.0687 -65.5625,5.5996 -11.4675,-1.9178 -20.2981,-12.833 -31.7305,-10.0332 -11.4324,2.7998 -1.6256,11.2769 -13.0664,11.4336 -34.0639,0.4667 -44.0952,-9.5658 -50.8613,-8.166 -6.7661,1.3999 -15.6334,19.3647 -30.332,20.5313 -14.6988,1.1666 -23.0975,5.3667 -33.3633,9.5664 -10.2659,4.1997 -17.6996,6.1549 -22.3985,0.4668 -9.5993,-11.62 -10.5281,-4.5404 -20.2089,-9.627 -6.1188,-0.5079 -12.2394,-0.7323 -18.3633,-0.7969 -18.372,-0.1937 -36.7604,1.0633 -55.1133,0.5137 -19.8671,15.9331 -47.2798,6.7834 -65.6191,14.6172 -21.4557,12.1995 -48.6447,-1.7308 -72.4063,3.1543 -25.3644,7.5701 -57.9276,8.0659 -75.2305,30.3965 -14.215,21.896 -30.4846,-20.0724 -43.5468,5.4121 -23.0556,-8.4409 -42.6338,9.6501 -59.5684,22.959 -26.7225,15.7232 -59.96607,11.196 -86.08594,-3.3477 -7.05996,-8.7457 -2.60587,-27.2612 -15.25391,-11.4433 -18.53904,11.0439 -33.35618,-8.5293 -48.29101,-3.8868 -26.29614,-14.5967 -48.77827,16.9425 -75.33789,17.6934 l -26.42188,2.0156 c 0,0 -16.09796,-0.2327 -27.76367,-3.7324 -11.6657,-3.4998 -27.06445,-13.2988 -27.06445,-13.2988 0,0 -9.09852,9.5659 -11.43164,13.7656 -2.33315,4.1996 -10.73368,48.2959 -19.59961,59.2617 -8.86593,10.9657 -40.82925,38.263 -57.39453,50.1621 -16.56531,11.899 -30.7969,26.1311 -38.96289,40.3633 -9.92777,14.6993 -15.99935,32.1194 -26.83204,46.1973 0,0 -0.70001,38.2631 -5.59961,50.1621 -4.89958,11.8991 -15.39805,35.4632 -17.03125,44.5625 -1.63319,9.0993 5.83183,38.498 7.93164,46.1972 2.09983,7.6993 -3.26562,14.4649 -3.26562,14.4649 0,0 1.8657,1.8663 5.83203,2.0996 3.96634,0.2333 11.43354,8.1657 14,15.3984 2.56646,7.2328 0.23242,20.2989 0.23242,20.2989 l 93.0918,-52.2618 c 12.63822,-33.18 24.8499,-66.523 37.83789,-99.5683 l 481.38866,1.4082 c 27.4249,-7.2485 54.8505,-14.4977 82.2754,-21.7461 -0.11,-46.1939 -0.2201,-92.3862 -0.3301,-138.5801 2.8695,-16.5343 20.9005,-19.0005 34.6446,-17.5332 l 305.6093,-0.459 c 0,0 10.3313,-1.7702 17.0313,5.1328 7.6994,7.9327 7.4648,14.6993 7.4648,14.6993 l -0.6992,73.0273 c 1.4672,15.7111 1.4063,37.6826 0.6992,68.1289 12.6218,1.5517 25.1906,3.5281 37.7071,5.7715 36.1251,5.9658 71.3185,16.5426 105.0019,30.8457 11.5098,1.2939 29.0494,20.6949 34.416,4.8809 7.7418,-16.2285 20.2194,-30.7677 22.7969,-48.9942 0.069,-14.0888 6.2114,-26.7479 9.8223,-40.0293 2.1121,-25.2737 9.2148,-50.3614 22.4492,-72.1406 0.1497,-12.3723 -23.8617,-10.4137 -33.8379,-14.8145 -10.6411,-7.1872 -21.6139,-22.4743 -14.8242,-35.4902 8.6043,-6.5798 2.0294,-10.0458 -4.0391,-15.5059 -18.3333,-17.8347 -28.2688,-42.783 -29.4707,-68.1367 l -1.6328,-4.666 c 0,0 -0.2988,-17.08 4.4336,-34.2988 4.0828,-14.8553 9.332,-24.2637 9.332,-24.2637 0,0 -1.3998,3.7332 -5.1328,-5.1328 -3.7331,-8.8659 0.9336,-11.4316 0.9336,-11.4316 0,0 -12.5986,-6.5334 -28.6973,-7 -2.0123,-0.058 -3.89,-0.077 -5.664,-0.051 z" />
  <path
     id="France"
     d="m 1441.1387,1490.5098 c -13.9573,-0.3955 -33.8956,8.6873 -33.9981,22.289 -1.0153,21.3782 -3.041,47.1607 -29.7754,50.1758 -17.1176,8.9593 -47.2433,4.5819 -52.8398,27.5293 15.8286,6.7596 -12.1969,19.4921 -21.6543,15.9961 -15.9292,-8.5336 -42.8152,0.5674 -52.4922,-11.4668 4.9703,-21.8792 -11.0867,-13.0355 -25.084,-13.0195 -23.8,-11.7084 -3.2047,16.2676 -1.6972,28.0859 0.5139,11.9002 25.0136,45.2718 0.5996,39.4082 -19.6796,-4.6837 -39.7922,-2.6016 -56.5821,7.7227 -12.5629,-12.9915 -29.7369,-30.9229 -47.9394,-13.2969 -21.5392,7.2644 -44.8971,6.7561 -67.0742,9.9824 -21.5696,11.6942 1.9752,26.4233 3,39.9824 7.9097,15.1763 34.9864,12.477 43.1523,31.8067 11.5853,13.5774 25.9217,26.5718 39.3379,36.5996 -11.8542,23.0584 22.9825,22.7945 30.5801,39.8164 l -2.8399,4.3398 c -3.0425,-6.5091 -9.2566,-9.9928 -15.1152,-10.1933 -7.5325,-0.2579 -14.4773,4.9109 -13.3398,16.0566 4.6842,17.7829 18.0872,34.1505 34.1914,42.961 16.1295,3.1929 23.5403,22.8799 16.6445,36.8476 -13.5301,9.4402 5.3541,15.4959 0.8535,25.3789 -10.4066,45.2917 -12.5659,92.152 -23.2305,137.4278 -2.9375,14.4847 -11.7191,29.1435 -25.6191,34.9218 -12.1565,-4.2445 -8.7565,7.9538 0.4727,10.0918 23.6984,0.9686 -1.3617,28.294 19.6191,32.0547 13.5282,2.4713 16.4062,12.4346 17.4648,23.832 16.3381,12.3417 34.5352,23.2536 54.127,29.3829 13.5808,-8.438 27.7617,-1.8416 41.7637,3.5 l 4.1145,4.0219 c 3.7659,10.0242 4.0464,22.1958 15.7429,30.1363 13.139,-3.5404 15.8062,12.48 26.8476,12.455 14.7343,-2.6487 26.5677,14.2414 43.2637,10.2325 25.8156,6.9974 -1.3743,-27.6956 22.3106,-29.8985 18.8508,-1.1868 34.7038,-12.6131 48.8886,-24.2031 14.7233,3.5471 30.7378,4.5603 45.3614,10.5547 18.5017,-7.2899 37.2873,3.7861 55.7714,8.039 16.0486,10.3283 36.6915,11.1977 53.8477,3.0704 18.7998,-1.9188 10.898,-23.8779 27.6602,-26.9883 11.3533,-12.9532 30.4819,-16.3793 39.4375,-31.0059 13.4565,-20.5937 -11.3992,-25.2842 -19.2754,-39.3828 -11.2488,-14.7405 0.1728,-30.9411 2.6757,-45.6601 -3.7561,-12.1286 -30.8716,-23.9517 -16.0293,-37.2813 13.4796,3.317 26.2376,-9.4496 20.7715,-23.3086 -7.7776,-10.9449 -23.3289,-41.5175 2.9864,-36.8184 3.486,-14.6835 -14.6682,-24.8009 -16.4707,-39.9082 -1.7419,-1.2967 -3.4761,-1.8874 -5.2051,-1.9609 -12.1032,-0.5145 -23.9864,24.2637 -36.9844,8.8242 l -0.6387,-4.7754 c 8.5242,-20.022 20.8731,-35.4092 36.584,-50.0918 6.9321,-15.8541 14.7309,-32.7055 34.6895,-30.8828 1.1492,-6.2668 -14.1088,-8.4337 -4.2969,-17.9394 18.2427,-1.1628 34.4088,-8.2997 40.625,-23.2285 8.901,-17.2817 16.0986,-37.6045 34.6445,-48.5899 12.3986,-4.6993 26.4524,-21.1887 5.2989,-24.3555 -21.8132,-3.5189 -30.0472,-26.4933 -50.3965,-30.1503 -12.6041,-6.0386 -11.6855,-23.7195 -29.3242,-19.5801 -19.1786,2.8688 -20.0452,-16.9996 -30.3848,-25.0235 -19.7742,4.0089 -21.2685,-19.4966 -38.4688,-14.2558 -11.672,-12.7527 -21.8722,-28.652 -35.1093,-40.127 1.1796,-6.1005 1.0587,-17.9112 -2.8809,-18.0527 -1.3132,-0.047 -3.0514,1.2011 -5.3066,4.3906 l -14.3379,6.3594 c -3.7508,-0.7264 -8.3836,-1.0843 -11.0645,-4.1582 5.9677,-14.8074 0.755,-31.5373 -18.1211,-31.2774 -6.291,-7.938 -3.7934,-22.7033 -18.2793,-26.9277 -0.076,-10.494 2.0738,-27.5988 -15.5293,-20.9316 -4.9781,-8.5986 -9.9573,-17.1964 -14.9355,-25.795 -2.3671,-2.4216 -6.3554,-3.6064 -11.0078,-3.7382 z" />
  <path
     id="India"
     d="m 5098.8164,2121.291 c -70.2622,5.4954 -135.5061,40.6842 -204.9023,55.4317 -25.0215,7.396 -51.3282,10.7904 -75.5567,20.5996 -12.3438,7.8787 -24.9466,18.3564 -28.9609,33.0918 -7.7837,22.6947 -7.2554,47.0619 -12.0371,70.2793 -9.5081,12.981 -3.1964,34.0775 -19,42.6894 -25.2587,14.7446 -51.3751,27.9594 -77.2676,41.543 -7.525,25.6285 -15.4789,51.2529 -28.084,74.8926 -12.3141,26.5867 -16.0556,55.8079 -21.4082,84.3105 11.8519,5.4359 41.8899,-6.9337 39.7637,12.2598 -13.6703,3.0848 -14.8918,16.7251 -0.2832,20.1113 15.4808,7.4863 32.2425,24.2717 50.5664,15.4141 18.1097,-6.0434 23.5393,-25.4361 29.3555,-41.4532 6.2291,-11.2707 14.523,13.2728 21.6171,16.8633 l 5.8106,36.3613 c 18.2774,42.1018 42.6406,81.7949 72.5644,116.625 9.2414,11.8849 25.6055,16.9663 31.0743,31.8711 9.2484,22.4421 22.8461,43.6538 43.0878,57.6485 12.8544,6.3688 19.7878,23.1588 31.67,29.1992 12.5328,4.8547 29.9558,2.9524 31.2636,-13.709 -2.5193,-14.8557 3.4094,-28.8505 7.2774,-42.8086 3.9963,-17.4717 -3.606,-35.0569 -0.8164,-52.4512 9.0971,-10.8144 12.8155,-24.3081 10.2285,-38.6054 -0.2883,-19.3667 -5.3769,-40.4701 3.8223,-58.541 5.9658,-11.0391 23.3519,-9.4297 18.7031,-25.6953 0.2008,-3.0047 2.1301,-5.1192 4.6269,-6.9083 l 8.1538,-3.3879 c 0,0 7.5256,-5.2628 9.3945,-9.0248 l 1.8228,-9.6185 c 3.9595,-5.2793 -2.9679,-8.9086 -0.9882,-15.1777 1.9798,-6.2692 10.227,-15.1771 16.8261,-24.086 6.5992,-8.9088 5.2806,-15.1795 14.1895,-30.3574 8.9088,-15.178 17.8164,-51.8027 17.8164,-51.8027 z" />
  <path
     id="Yugoslavia"
     d="m 2231.3379,1860.5469 c -1.4216,-0.2485 -3.0941,0.1072 -5.1113,1.25 2.6333,15.4323 -8.7103,28.8292 -25.1856,24.7324 -22.1931,-8.0336 -37.3607,8.6262 -42.5762,28.875 -10.9991,14.9516 -34.8755,11.2955 -51.1152,7.1562 -10.7415,-10.9381 -49.0403,-5.2925 -35.9062,12.4278 5.6227,17.2288 -0.4522,37.1559 9.0351,54.3457 1.6107,21.5123 24.6664,25.1949 36.3965,39.3476 -2.1197,19.4096 9.4203,35.3393 24.1465,47.4239 -17.1135,8.8777 5.5935,26.6074 16.3965,34.455 13.0279,8.3065 25.602,19.2572 35.8027,29.043 23.1391,-7.3151 49.0077,1.487 65.6621,18.4766 30.2353,19.0533 62.0988,35.4619 92.3027,54.6074 16.2746,7.1595 26.8576,22.165 38.8536,32.502 8.0379,-23.1286 18.432,-52.1482 26.7539,-75.9864 0.026,0.094 0.048,0.1838 0.074,0.2774 16.7249,11.4876 37.1513,24.761 57.6308,27.9297 17.8163,2.8877 37.2071,14.6458 29.9922,35.3418 3.1925,22.193 -29.223,-4.3432 -20.5371,17.4394 5.4104,15.0477 11.9136,29.1067 14.8438,43.8379 7.4585,16.7698 18.8646,36.2221 40.539,28.4824 17.2089,-1.4594 35.0571,-7.8027 44.377,-23.3808 10.474,-20.4889 37.3936,-5.7495 50.8242,-19.7911 11.5649,-11.105 26.0339,-32.6425 11.1719,-46.5097 -14.2519,-6.6901 -13.2941,-25.5145 -31.4981,-28.5469 -18.4411,-5.0729 -10.7321,-20.8559 -5.2968,-32.5391 -16.1753,-11.1179 -12.4763,-31.652 1.3711,-43.6894 17.4921,-9.7763 16.4427,-30.1602 -2.5352,-37.4375 -15.9296,-9.2453 -31.2335,-27.7837 -22.2695,-47.0117 4.6189,-9.733 20.3331,-17.7513 2.5547,-23.6856 -18.5785,-2.1595 -15.3373,-25.126 -0.8457,-30.7773 -16.8058,-10.7878 -8.2501,12.605 -39.8282,15.0449 -19.8587,1.5344 -26.6092,-22.4828 -37.3515,-35.4102 -16.7264,-9.0479 -19.2204,-28.0805 -32.6973,-40.1816 -9.3468,-10.2025 -19.6868,-24.6791 -34.377,-24.8477 -2.0985,-0.024 -4.2863,0.2454 -6.5722,0.8594 -43.4754,12.7562 -71.5089,41.6444 -81.6859,43.9512 -18.1815,-1.0403 -37.7836,-3.8916 -53.4958,-13.7383 -20.4181,-8.6 -25.5554,-33.9297 -45.4296,-42.5508 -16.8472,1.3875 -14.4628,-29.9831 -24.4141,-31.7226 z" />
  <path
     id="Spain"
     d="m 826.90234,2023.4512 c -9.65953,0.2204 -19.58662,3.7431 -27.625,8.9238 -10.28946,11.3464 -23.03413,24.0822 -41.24218,15.6895 -18.3176,-4.0126 -36.73827,9.4713 -36.18946,28.7324 -2.92721,21.0815 12.97089,40.142 7.09766,61.2597 -6.7e-4,11.3961 -17.85806,33.6646 2.82617,19.6836 15.55272,-11.8401 35.82178,9.2014 20.69531,22.7774 16.90225,1.5548 32.94717,7.8512 49.23243,11.334 12.13574,-11.8082 40.4457,-7.9181 44.01171,9.0351 -8.49024,23.0815 24.62404,7.7021 21.97266,26.1016 -6.33349,0.1025 -10.05678,7.4275 -14.5918,13.834 -16.57832,-0.9793 -21.33759,16.3684 -35.78906,18.2754 -10.35984,16.507 6.38717,39.8825 -7.30859,54.8691 -16.15097,1.6083 -9.30399,15.2639 -8.61524,25.877 -1.67665,22.304 -26.52246,30.0437 -45.01953,23.4492 -1.08488,8.9921 14.66811,29.2451 19.8711,41.2011 9.45725,21.7322 -8.2686,28.635 -19.44532,41.1348 -7.73017,21.2186 28.2225,22.0917 17.48633,40.9746 -9.89443,13.1609 -30.18148,11.9363 -36.92969,28.586 -11.98332,12.1981 -25.32483,44.3958 1.03907,45.2753 9.1005,13.5133 19.62047,2.5412 31.99414,-0.4609 51.91071,-17.4583 101.6333,16.6984 106.8164,21.4102 20.94297,14.303 27.63426,40.5262 41.08008,58.5547 18.79219,21.163 47.44922,4.753 66.15625,17.996 21.38572,5.6166 25.67282,-37.7845 45.68942,-46.1308 12.0374,-18.5312 61.1179,6.6558 53.709,-19.8164 7.7515,-28.0403 30.3387,-53.4604 57.7813,-64.1914 30.2978,-8.4692 14.3889,-24.3562 1.9101,-41.4571 -13.0065,-24.2679 0.8081,-48.5843 18.0801,-66.08 18.7872,-18.3025 33.8644,-47.7895 60.5879,-53.5547 24.0758,-5.738 -2.3244,-26.8908 20.2578,-33.1114 17.1836,-2.0313 59.0323,-21.8023 60.4824,4.8243 13.4519,0.4723 41.3813,-16.0334 58.5801,-25.67 18.8613,-5.1358 16.7973,-27.3768 22.0039,-36.9023 21.6071,-1.7754 -2.2932,-30.6852 -14.6621,-26.6641 -26.6813,3.2217 -49.7924,-11.2654 -72.4121,-20.7519 -22.3726,-4.4599 -13.6865,-47.2166 -45.6738,-42.3438 -23.4934,11.3085 -42.0263,-6.5175 -62.7227,-16.291 l -35.6504,-36.3164 c -15.9139,-7.8513 5.2184,-32.9974 -19.791,-30.9433 -6.7825,-6.0964 -3.5001,-17.9462 -16.6895,-11.9961 -21.5231,6.0614 -38.641,-11.7495 -58.5136,-11.1465 -20.3045,11.1365 -29.2646,-19.7979 -49.8106,-13.5957 -16.9392,-1.3213 -36.22733,2.4983 -51.14841,-7.0957 -13.85255,-13.503 -35.95074,1.3804 -54.02539,-6.4141 -16.93288,-3.8559 -39.83897,-0.4215 -49.48437,-17.9746 -6.96962,-8.0279 -16.36195,-11.111 -26.02149,-10.8906 z" />
  <path
     id="Portugal"
     d="m 477.16797,1794.6562 a 125.05655,126.22312 0 0 0 -35.19336,5.2969 125.05655,126.22312 0 0 0 -83.97266,157.0469 125.05655,126.22312 0 0 0 155.54688,84.8418 125.05655,126.22312 0 0 0 84.14453,-156.9531 l -0.0781,-0.2637 A 125.05655,126.22312 0 0 0 477.168,1794.6562 Z m 266.63086,365.6211 c -6.61513,-0.1275 -16.47578,3.515 -26.78711,10.4102 1.06127,25.5776 -2.49916,25.5786 -0.49024,43.7285 2.09774,18.9524 -5.79011,31.384 -13.89648,44.9824 -10.5514,17.7001 -13.456,36.4649 -25.36328,53.6016 -10.29001,14.8091 -13.97376,36.8937 -32.95117,41.3691 -11.95376,12.074 -16.07717,32.0147 -27.07032,46.1231 -8.61451,11.0557 0.47736,17.4998 11.33204,22.7129 -11.69886,25.4617 3.37875,17.1346 13.99609,16.6074 12.30609,16.6253 -0.74746,29.6174 -6.93164,41.4824 3.42902,12.1665 0.0951,24.7154 -6.08984,42.502 -2.88217,8.2885 -20.12302,19.5085 -17.9668,34.6777 19.5932,-5.5132 44.07145,-2.3444 58.30469,8.0078 11.56272,11.0904 33.62457,-9.9763 50.52343,-6.4492 -2.05006,-15.6551 -3.7983,-8.9466 -2.11132,-21.3496 4.32365,-13.9867 12.81133,-27.5678 23.6582,-37.7031 10.29147,-11.6256 38.87742,-13.0499 24.20117,-25.9629 -9.47792,-10.4902 -28.8708,-23.0264 -7.25586,-41.459 18.46006,-15.7422 16.22821,-16.4831 6.27344,-39.7441 -3.6327,-11.0211 -25.49685,-28.3604 -10.99024,-36.4766 45.24011,6.3924 41.72653,-10.5754 39.98633,-44.5508 21.32732,-0.1181 14.92684,-27.4212 14.3125,-42.5801 -0.96523,-23.817 18.33886,-13.4173 21.34375,-28.1035 7.84267,-6.6629 26.44382,1.3134 25.7461,-20.1562 -19.03851,-4.4216 -12.95023,-9.8645 -16.73633,-26.6094 -28.35383,-14.5223 -36.15992,9.3873 -50.26172,-0.1211 -12.89909,-8.6975 -34.95784,1.7533 -41.29688,-14.6543 8.16681,-13.7266 5.02665,-20.1212 -3.47851,-20.2852 z" />
  <path
     id="Middle East"
     d="m 4164.0586,2174.7598 c -14.7807,2.0908 -40.4764,22.6233 -60.8555,28.7871 -19.0365,10.6661 -40.1255,13.3486 -61.2207,14.8437 -19.6428,6.786 -36.8637,20.6419 -44.3008,40.4297 -9.9997,7.1326 -12.1567,17.0919 -12.4902,28.75 -9.8909,82.7147 -18.6163,165.4298 -28.5072,248.1445 l -1.6534,4.9621 -352.896,193.1766 -6.9297,18.3965 c -3.6245,-0.029 -9.2406,-0.5483 -7.2949,5.7598 l -13.0664,28.2304 c -10.0235,56.598 -38.7887,86.6819 -90.2403,107.8614 -21.4355,-61.779 -79.9404,-103.5385 -145.9844,-103.1914 -14.6568,0.077 -29.2276,2.2425 -43.2695,6.4316 -47.5851,14.1968 -82.9979,49.3791 -99.4492,92.3223 -1.8058,-1.628 -3.4816,-2.6162 -4.8301,-2.2032 -11.8953,4.6371 -20.5403,9.987 -31.498,5.3672 0.2806,16.2103 -13.1047,19.2336 -19.8321,13.5313 0,0 -45.4955,41.0642 -62.9941,40.5976 -26.3924,-0.7038 -12.9852,-14.0828 -80.0273,-9.334 l -4.6661,-9.0976 c -4.4459,3.2598 -13.7348,8.7985 -23.0976,6.5312 0,0 7.6981,16.3324 1.8652,44.3301 -5.8329,27.9977 -9.0988,32.5482 -6.7656,64.1621 1.0326,13.9918 1.4004,74.8946 1.4004,74.8946 l 66.2617,1.3984 c 49.872,-2.9107 115.4238,-7.2901 190.6896,-46.2662 16.6715,-9.8604 18.0968,-9.1983 18.4321,-11.9449 14.4956,12.83 42.1576,27.7063 69.3275,32.9845 -0.509,15.6238 1.9891,31.336 3.3809,46.9024 l 78.8593,44.873 -62.6914,36.625 15.8379,76.5508 343.4844,0.6602 c 0,0 -8.9086,-57.4138 -20.7871,-62.0332 -11.8784,-4.6194 -14.3245,-14.3325 -19.4668,-28.045 -2.9696,-7.9189 -42.8938,-18.1489 -51.4727,-24.748 -8.6264,-6.6358 -2.9696,-3.6297 -21.4472,-26.7266 -18.4775,-23.0968 -25.4071,-9.568 -38.2754,-29.6953 -24.6458,-27.6945 -52.9191,-61.4209 -82.3652,-84.1347 23.2479,-26.6364 36.9571,-60.7936 37.8691,-96.7559 45.642,-8.2019 91.1536,-18.1852 136.6387,-27.457 l 71.8027,17.498 V 2894.5 c 0.019,-9.0958 8.257,-19.3969 23.0977,-19.1328 l 245.914,-0.6406 c 22.495,-42.1888 30.6661,-52.3423 57.2207,-68.1875 l 0.2324,-86.9082 c 0.1897,-8.5765 6.6141,-17.6233 19.5411,-18.7247 h 11.082 c 11.5117,-23.6451 26.028,-41.3113 28.1152,-68.1855 11.1317,-24.8569 39.4202,-22.5973 56.5293,-43.5859 16.9447,-13.0573 40.3896,-1.8096 58.9356,-11.5586 26.0208,-8.8128 45.1354,-37.2398 75.0625,-32.6563 22.3042,0.4367 44.7589,3.9893 66.8379,4.4219 13.6782,-9.8529 -14.3505,-27.168 -13.6485,-41.3691 -9.979,-24.0572 -8.5324,-50.7906 -10.2988,-76.3282 5.6053,-18.8653 -1.8308,-32.7822 -6.7578,-50.2812 5.1558,-25.586 -7.7261,-50.638 -4.9336,-76.1153 12.5696,-7.2727 20.0711,-27.9101 -2.6758,-23.9707 -20.4321,6.6261 -50.0075,14.9259 -54.8164,-15.8339 -5.7089,-24.128 -38.2309,-22.2828 -44.5215,-45.9903 -12.3904,-17.4776 -41.1209,-17.9714 -42.3906,-44.6933 z" />
  <path
     id="Turkey"
     d="m 3981.8047,1787.0449 c -26.1204,-0.6026 -48.6341,7.9854 -69.6758,30.1895 0,0 1.8146,16.3327 -13.6934,44.709 -15.5078,28.376 -22.9576,22.9741 -32.5,35.1406 -6.599,8.4139 -28.541,34.1507 -39.0996,35.1406 -10.5586,0.9898 -38.2753,7.4244 -43.2246,3.7949 -4.9494,-3.6296 -53.289,32.336 -53.289,32.336 l -5.2246,1.9843 c -33.5204,15.7236 -56.8716,15.0355 -57.1622,8.6329 l -8.166,0.9335 c -3.1113,19.1052 -11.1595,8.3249 -19.9375,7.9981 -6.5166,0.082 -20.2391,5.5039 -22.1074,3.0527 -4.5599,-5.9824 -4.6272,-11.165 -34.2324,-3.2988 -3.6933,26.4551 -32.0575,8.5072 -33.9024,5.1973 -4.1356,-11.7581 -5.8585,-18.1013 -20.541,-16.416 -14.8792,13.9421 -39.5448,28.5339 -58.5664,7.1757 -7.9314,-8.9057 -18.8911,-15.9202 -18.8086,-9.1562 0.2577,21.1359 -17.7832,16.1052 -31.7578,24.418 l 0.4473,1.0078 c -22.4685,3.3662 -49.3676,17.425 -72.1309,20.4394 0,0 -33.6842,27.0755 -45.3691,35.1387 -15.9306,10.993 -10.6453,18.8983 -64.836,69.457 0,0 8.3602,13.8743 -4.7832,21.9414 -33.7833,20.7355 -85.5885,10.0538 -123.7168,35.3965 -21.4473,-41.5143 -64.5709,-68.4777 -112.5371,-68.2246 -12.0153,0.064 -23.9597,1.8474 -35.4707,5.2969 -66.6639,19.9755 -104.5497,90.2652 -84.6367,157.0273 7.2263,24.2268 21.13,44.591 39.0254,59.8457 l 7.3887,43.166 c -8.6203,8.0634 18.8051,23.0183 2.9941,23.3789 -8.7955,-1.8707 -25.5522,-28.4736 -27.2656,-8.4414 7.3128,10.0747 -17.925,25.9599 4.1738,27.6778 5.6147,4.1434 17.2663,9.5272 18.5899,-1.4707 7.9167,12.3397 43.2703,2.7718 33.0664,24.5644 -11.6015,4.1415 -14.1442,8.8476 -2.0703,12.9063 1.9765,10.4848 12.9031,21.1833 16.4414,23.6855 -7.9641,6.8516 -11.7513,23.3834 4.5351,16.6309 11.2825,-1.4675 37.0081,-5.8558 38.752,-7.3457 1.3529,20.947 -23.472,12.6056 -36.5391,19.3457 -14.4396,11.9315 12.8539,13.2512 20.0352,6.3281 12.2511,-8.6943 13.6732,15.0583 22.0976,2.0273 10.4574,-13.7176 28.0194,-19.6832 41.4063,-6.7265 9.2145,1.9817 13.7897,-19.4305 16.2343,-3.4453 5.5777,17.7942 22.52,29.9943 41.0215,30.3594 19.4897,1.219 41.6704,-6.1726 52.1075,-23.4747 4.3708,-15.4558 2.4887,-40.1525 26.4238,-34.916 17.7895,0.7232 35.5203,4.038 52.8203,7.8301 l 28.5469,5.6152 c 30.5607,4.1917 36.738,42.1422 95.1933,28.9297 12.9423,-2.9253 66.2641,-9.82 71.7442,-10.0312 11.0446,-0.4257 16.8045,-19.2482 24.0312,-10.6153 7.2291,8.6358 15.1651,-10.9662 21.8145,-14.6992 6.6495,-3.7331 47.012,-31.9635 71.9765,-21.8144 48.3259,19.6462 79.681,5.1578 67.0782,-7.2344 11.7976,2.1056 27.9826,-3.901 36.6308,-14.582 9.0993,-0.4666 9.6817,4.5507 9.6817,4.5507 18.6133,-13.9523 48.304,-0.076 68.2461,-7.2324 11.6695,-42.544 31.2109,-18.7718 63.3437,-47.2461 -5.5377,-29.0586 -32.0915,-13.3869 -30.2129,-67.0781 16.478,-16.4302 27.2555,-17.5138 33.9453,-29.9824 2.6132,-37.4676 16.1476,-8.6492 12.5996,-43.1621 -2.2878,-22.255 -48.053,-12.2596 -44.4082,-39.0332 l 0.4942,-5.2793 c -3.2295,-23.0899 27.0162,-16.1704 37.7793,-28.0469 4.7843,-5.2793 9.0315,-10.8285 18.9726,-11.5488 11.3835,-0.8249 22.9334,-6.4336 27.8828,-6.4336 4.9493,0 15.8371,-2.3104 24.086,-9.7344 13.4143,-15.9733 31.2257,-12.1211 49.164,-25.5703 -5.8807,-26.3104 20.6509,-19.4959 39.0996,-27.2227 10.5586,-4.7844 40.75,-19.7958 46.0293,-27.7148 14.7306,-25.1053 22.3896,-23.1251 48.668,-28.2129 15.0588,-36.018 10.7801,-46.9067 -2.3105,-58.7305 -5.1144,-4.6194 -9.7329,-10.2293 -5.7735,-20.623 3.9595,-10.3936 11.7137,-23.5921 8.4141,-29.5313 -3.4758,-6.2564 -18.1483,-7.7549 -20.293,-16.0039 -2.1447,-8.2489 1.3208,-12.0417 5.4453,-16.4961 4.1245,-4.4544 5.6087,-9.7335 -1.3203,-12.7031 -5.5613,-2.3834 -10.1131,-8.1581 -8.9082,-21.6133 1.7926,-20.0179 -6.0559,-16.9263 -21.4472,-32.1699 4.4935,-8.5928 3.1736,-17.3413 -4.4551,-43.8848 -13.5635,-3.6565 -26.1818,-5.8296 -38.0547,-6.1035 z" />
  <path
     id="Denmark"
     d="m 999.91992,445.07812 c -7.52152,0.75374 -6.43701,16.49217 -16.55469,13.54102 -14.49427,-4.22772 -15.92192,15.35686 -26.10742,19.54688 -8.17667,3.36364 -24.09193,12.09547 -10.73633,20.41406 8.53005,5.31296 34.43536,-10.2944 29.04297,4.22656 -3.45336,9.29946 -12.9645,19.67534 -24.73437,18.73633 -8.29995,-0.66218 -28.2422,-0.92361 -22.14453,10.69726 4.39897,8.38353 19.33896,-2.46403 19.58984,12.26758 0.21056,12.36392 -5.12491,24.92696 -18.04297,24.09375 -12.54451,-0.80912 -13.51972,16.28126 -0.92187,15.47266 14.6383,-0.93957 22.18499,0.71739 28.66015,16.01367 4.4495,10.51104 21.00417,12.6107 33.70508,11.08789 16.35422,-1.96083 22.76702,-15.345 35.87892,-13.86328 19.0319,2.15071 13.8803,-6.45893 22.6113,-9.10742 13.075,-3.96619 27.2651,-2.47265 38.0332,-10.69727 9.6766,-7.39091 16.5602,-16.7517 28.0723,-22.17187 14.4422,-6.79971 17.2943,-18.48995 21.7519,-30.13477 4.1684,-10.88933 -9.3708,-19.96152 -1.4629,-32.49414 2.5986,-4.11828 -4.9978,-8.92593 2.6446,-10.6543 5.3916,-1.21933 11.7418,-10.83691 2.7402,-8.80468 -9.6125,2.17013 -12.2341,-5.35396 -18.0215,-10.49805 -9.5653,-8.50201 -9.7571,21.79306 -24.5293,13.82031 -8.6937,-4.69207 -17.4806,1.59904 -25.1953,-2.32422 -10.3532,-5.26505 -19.8626,1.24742 -28.0351,8.30079 -8.4573,7.29911 2.1595,-20.496 -12.8555,-7.42969 -7.6767,6.68038 -19.9474,26.24561 -23.6484,19.36523 -4.9968,-9.28901 5.7533,-12.38008 5.4824,-25.61719 -0.3089,-15.09642 -6.51,-21.10349 -11.4141,-23.09375 -1.4835,-0.60207 -2.7341,-0.80103 -3.80858,-0.69336 z m 905.97068,450.07032 a 149.78081,151.08809 0 0 0 -62.8203,9.83008 149.78081,151.08809 0 0 0 -86.0586,194.93948 l 0.5625,1.4609 a 149.78081,151.08809 0 0 0 193.916,85.2891 149.78081,151.08809 0 0 0 85.0547,-195.3848 149.78081,151.08809 0 0 0 -130.6543,-96.13476 z" />
  <path
     id="USA"
     d="M 1.0859375,610.57227 C 0.80035556,748.99273 0.83026042,887.41334 0.82421875,1025.834 l 5.93945315,-12.3731 c 9.8679311,-0.3965 1.6135814,-19.70019 11.2187501,-28.70504 5.279293,-4.94934 12.533845,-5.04668 17.982422,-7.75391 33.833283,-16.81069 20.267119,16.38676 45.865234,24.91015 -0.14568,-35.28004 20.078512,-12.83187 28.871092,4.7852 33.53022,-17.15541 -11.581093,51.4012 10.22852,80.3437 24.47821,-22.7432 16.34029,-82.1948 28.87109,-92.8828 5.60926,-4.78435 67.64001,-24.91036 65.99024,-38.60351 -1.91453,-15.8905 19.0866,-34.37338 19.0866,-34.37338 l 3.45994,-7.73672 c 5.96655,-0.25874 9.5194,-23.68362 40.3558,-20.31764 -7.8113,-27.28073 15.88254,-34.39184 28.11523,-37.21289 0,0 13.53142,-34.06347 4.54883,-39.42968 -8.98259,-5.36623 -24.38112,15.86458 -38.61328,12.71484 -14.23216,-3.14975 -17.61437,1.04961 -26.01367,5.94922 -8.3993,4.89958 -18.54825,-3.84843 -30.44727,-0.58203 -11.89899,3.26638 -40.55229,13.90214 -44.75195,5.26953 -4.19966,-8.63262 -3.31154,-12.50389 12.78711,-23.23633 23.10603,-15.40403 -15.23994,-96.91139 -32.66406,-107.05078 L 117.24805,768.59375 55.0625,664.71289 54.595703,643.71484 Z" />
</svg>
